<?xml version="1.0" encoding="iso-8859-1"?>
<!-- Generator: Adobe Illustrator 19.0.0, SVG Export Plug-In . SVG Version: 6.00 Build 0)  -->
<svg version="1.1" id="Capa_1" xmlns="http://www.w3.org/2000/svg" xmlns:xlink="http://www.w3.org/1999/xlink" x="0px" y="0px"
	 viewBox="0 0 512 512" style="enable-background:new 0 0 512 512;" xml:space="preserve">
<g>
	<g>
		<g>
			<path d="M512,256.769c-0.022-0.782-0.18-1.554-0.469-2.281c-0.071-0.191-0.144-0.369-0.232-0.552
				c-0.313-0.694-0.741-1.329-1.267-1.88l-0.038-0.029c-0.404-0.403-0.858-0.753-1.35-1.042L368.08,169.39v-41.509
				c1.022-15.745,9.355-30.104,22.52-38.803c3.31-2.556,7.695-3.248,11.632-1.836c3.125,2.639,4.69,6.689,4.151,10.743
				c0,3.721,3.016,6.737,6.737,6.737s6.737-3.016,6.737-6.737c0.757-8.903-3.422-17.506-10.888-22.414
				c-8.073-4.031-17.704-3.327-25.105,1.836c-15.706,10.126-26.227,26.588-28.819,45.095l-31.661-18.282v-2.142
				c1.019-15.746,9.353-30.106,22.52-38.803c3.31-2.557,7.695-3.249,11.632-1.836c3.125,2.639,4.69,6.689,4.151,10.743
				c0,3.721,3.016,6.737,6.737,6.737s6.737-3.016,6.737-6.737c0.757-8.903-3.422-17.506-10.888-22.414
				c-8.073-4.034-17.705-3.33-25.105,1.836c-17.35,11.095-28.253,29.904-29.257,50.474v33.544L265.27,109.71
				c-2.121-1.234-4.747-1.214-6.849,0.053L3.27,262.855c-0.418,0.262-0.806,0.569-1.156,0.916c-0.052,0.049-0.116,0.081-0.166,0.132
				c-0.529,0.552-0.959,1.19-1.272,1.887c-0.079,0.168-0.141,0.336-0.206,0.512c-0.282,0.72-0.436,1.484-0.455,2.257L0,268.631
				v48.184c0.032,0.219,0.076,0.436,0.131,0.65c0.041,0.544,0.149,1.081,0.322,1.599c0.126,0.325,0.279,0.639,0.456,0.939
				c0.229,0.442,0.508,0.857,0.832,1.235c0.269,0.286,0.563,0.547,0.879,0.78c0.222,0.229,0.461,0.441,0.715,0.634l243.402,141.27
				c0.161,0.093,0.341,0.131,0.508,0.21c0.184,0.088,0.365,0.16,0.557,0.231c1.479,0.622,3.146,0.623,4.625,0.001
				c0.205-0.075,0.406-0.161,0.603-0.257c0.183-0.088,0.38-0.132,0.555-0.237l255.125-153.059c0.232-0.184,0.452-0.384,0.656-0.599
				c0.34-0.254,0.654-0.541,0.938-0.856c0.539-0.68,0.968-1.441,1.272-2.254c0.119-0.395,0.201-0.8,0.244-1.21
				c0.081-0.292,0.141-0.59,0.18-0.891v-48.185l-0.004-0.017L512,256.769z M323.382,119.782l31.224,18.029v23.757l-31.224-18.125
				V119.782z M323.382,159.025l31.224,18.126v16.978l-31.224-18.125V159.025z M311.88,209.37c1.264,1.264,2.978,1.973,4.765,1.972v0
				c1.787,0.001,3.501-0.708,4.765-1.972c1.264-1.264,1.973-2.978,1.972-4.765v-13.019l31.224,18.127v20.702
				c0,3.721,3.016,6.737,6.737,6.737s6.737-3.016,6.737-6.737v-12.88l70.033,40.657L251.329,370.263L73.888,267.257l186.789-112.073
				l49.23,28.58v20.841C309.907,206.392,310.616,208.106,311.88,209.37z M243.382,446.394L13.474,312.952v-32.619l229.908,133.455
				V446.394z M250.06,402.085L19.994,268.533l241.954-145.171l47.961,27.842v16.979L264,141.533
				c-2.121-1.234-4.747-1.214-6.849,0.053L57.165,261.579c-2.044,1.227-3.287,3.443-3.27,5.827s1.294,4.581,3.355,5.778
				l190.757,110.73c2.123,1.229,4.745,1.209,6.849-0.053l199.98-119.993c2.044-1.227,3.287-3.443,3.27-5.827
				c-0.018-2.384-1.294-4.581-3.355-5.778l-86.671-50.313v-16.978l123.928,71.942L250.06,402.085z M498.527,301.206L256.856,446.192
				v-32.47l241.671-145.008V301.206z" fill="#493c35"/>
			<path d="M307.954,236.388c-1.213,2.765-0.806,5.974,1.059,8.349c2.624,3.012,6.684,4.352,10.586,3.493l4.289-0.678
				c-0.502,2.368,0.074,4.836,1.572,6.737c2.627,3.004,6.681,4.34,10.579,3.487l4.296-0.678c-0.507,2.371,0.072,4.844,1.579,6.744
				c2.621,3.008,6.677,4.343,10.572,3.48l4.289-0.678c-0.501,2.362,0.073,4.825,1.566,6.723c2.05,2.452,5.122,3.814,8.316,3.684
				c0.762-0.001,1.524-0.062,2.276-0.184l16.138-2.566c2.382-0.372,4.384-1.989,5.248-4.24c0.865-2.251,0.46-4.792-1.061-6.663
				s-3.926-2.786-6.306-2.4l-10.158,1.605c0.501-2.362-0.073-4.825-1.566-6.723c-2.624-3.017-6.688-4.357-10.592-3.493l-4.289,0.678
				c0.502-2.368-0.074-4.836-1.572-6.737c-2.621-3.013-6.68-4.351-10.579-3.487l-4.289,0.678c0.502-2.366-0.074-4.832-1.572-6.73
				c-2.621-3.018-6.683-4.358-10.586-3.493l-4.099,0.645l0.783-1.829c1.448-3.42-0.144-7.367-3.56-8.824
				c-3.416-1.458-7.367,0.123-8.835,3.535L307.954,236.388z" fill="#493c35"/>
			<path d="M218.546,234.329l4.289-0.678c-0.502,2.368,0.074,4.836,1.572,6.737c2.621,3.012,6.68,4.35,10.579,3.487l4.296-0.678
				c-0.507,2.371,0.072,4.844,1.579,6.744c2.616,3.017,6.676,4.354,10.572,3.48l4.289-0.678c-0.502,2.366,0.074,4.832,1.572,6.73
				c2.045,2.45,5.114,3.809,8.303,3.678c0.765,0,1.528-0.062,2.283-0.184l16.138-2.566c2.382-0.372,4.384-1.989,5.248-4.24
				c0.864-2.251,0.46-4.792-1.061-6.663c-1.521-1.871-3.926-2.786-6.306-2.4l-10.158,1.605c0.502-2.363-0.074-4.828-1.572-6.723
				c-2.621-3.018-6.683-4.358-10.586-3.493l-4.289,0.678c0.502-2.368-0.074-4.836-1.572-6.737c-2.62-3.014-6.68-4.352-10.579-3.487
				l-4.289,0.678c0.502-2.366-0.074-4.832-1.572-6.73c-2.617-3.023-6.683-4.365-10.586-3.493l-4.099,0.645l0.783-1.829
				c0.953-2.216,0.649-4.772-0.797-6.702c-1.446-1.93-3.813-2.941-6.208-2.649c-2.394,0.292-4.45,1.841-5.39,4.062l-4.086,9.566
				c-1.213,2.765-0.806,5.974,1.059,8.349C210.584,233.85,214.645,235.19,218.546,234.329z" fill="#493c35"/>
			<path d="M308.849,301.421L308.849,301.421l-10.158,1.605c0.501-2.362-0.073-4.825-1.566-6.723
				c-2.62-3.023-6.688-4.365-10.592-3.493l-4.289,0.678c0.502-2.368-0.074-4.836-1.572-6.737c-2.62-3.015-6.68-4.353-10.579-3.487
				l-4.289,0.678c0.502-2.366-0.074-4.832-1.572-6.73c-2.622-3.016-6.683-4.356-10.585-3.493l-4.099,0.645l0.783-1.829
				c0.953-2.216,0.649-4.772-0.797-6.702c-1.446-1.93-3.813-2.941-6.208-2.649c-2.394,0.292-4.45,1.841-5.39,4.062l-4.086,9.566
				c-1.213,2.765-0.806,5.974,1.059,8.349c2.624,3.013,6.684,4.353,10.586,3.493l4.289-0.678c-0.502,2.368,0.074,4.836,1.572,6.737
				c2.623,3.01,6.68,4.347,10.579,3.487l4.296-0.678c-0.507,2.371,0.072,4.844,1.579,6.744c2.62,3.011,6.677,4.346,10.572,3.48
				l4.289-0.678c-0.501,2.362,0.073,4.825,1.566,6.723c2.05,2.452,5.122,3.814,8.316,3.684c0.762-0.001,1.524-0.062,2.276-0.184
				l16.138-2.566c2.382-0.372,4.384-1.989,5.248-4.24c0.864-2.251,0.46-4.792-1.061-6.663S311.229,301.035,308.849,301.421z" fill="#493c35"/>
			<path d="M189.928,285.993c2.045,2.45,5.114,3.809,8.303,3.678c0.765,0,1.528-0.062,2.283-0.184l16.138-2.566
				c2.382-0.372,4.384-1.989,5.248-4.24c0.864-2.251,0.46-4.792-1.061-6.663s-3.926-2.786-6.306-2.4l-10.158,1.605
				c0.502-2.363-0.074-4.828-1.572-6.723c-2.621-3.018-6.683-4.358-10.586-3.493l-4.289,0.678c0.502-2.368-0.074-4.836-1.572-6.737
				c-2.617-3.018-6.68-4.357-10.579-3.487l-4.289,0.678c0.502-2.366-0.074-4.832-1.572-6.73c-2.618-3.022-6.683-4.364-10.586-3.493
				l-4.099,0.645l0.783-1.829c0.953-2.216,0.649-4.772-0.797-6.702c-1.446-1.93-3.813-2.941-6.208-2.649
				c-2.394,0.292-4.45,1.841-5.39,4.062l-4.079,9.566c-1.22,2.763-0.818,5.973,1.046,8.349c2.624,3.018,6.688,4.358,10.592,3.493
				l4.289-0.678c-0.502,2.368,0.074,4.836,1.572,6.737c2.621,3.012,6.68,4.35,10.579,3.487l4.296-0.678
				c-0.507,2.371,0.072,4.844,1.579,6.744c2.618,3.013,6.677,4.349,10.572,3.48l4.289-0.678
				C187.854,281.629,188.43,284.095,189.928,285.993z" fill="#493c35"/>
			<path d="M263.481,334.677L263.481,334.677l-10.158,1.605c0.501-2.37-0.08-4.839-1.586-6.737
				c-2.622-3.007-6.677-4.342-10.572-3.48l-4.289,0.678c0.502-2.366-0.074-4.832-1.572-6.73c-2.62-3.019-6.683-4.359-10.586-3.493
				l-4.289,0.678c0.502-2.368-0.074-4.836-1.572-6.737c-2.62-3.015-6.68-4.353-10.579-3.487l-4.099,0.645l0.783-1.829
				c0.953-2.216,0.649-4.772-0.797-6.702c-1.446-1.93-3.813-2.941-6.208-2.649c-2.394,0.292-4.45,1.841-5.39,4.062l-4.086,9.566
				c-1.216,2.767-0.809,5.979,1.059,8.355c2.624,3.009,6.68,4.346,10.579,3.487l4.289-0.678c-0.502,2.366,0.074,4.832,1.572,6.73
				c2.622,3.016,6.683,4.356,10.586,3.493l4.289-0.678c-0.502,2.368,0.074,4.836,1.572,6.737c2.621,3.012,6.68,4.35,10.579,3.487
				l4.296-0.678c-0.507,2.371,0.072,4.844,1.579,6.744c2.047,2.443,5.112,3.796,8.296,3.665c0.763-0.001,1.524-0.062,2.276-0.184
				l16.145-2.566c2.382-0.372,4.384-1.989,5.248-4.24c0.864-2.251,0.46-4.792-1.061-6.663
				C268.266,335.206,265.861,334.291,263.481,334.677z" fill="#493c35"/>
			<path d="M304.81,213.414L304.81,213.414l-10.158,1.605c0.502-2.366-0.075-4.832-1.572-6.73c-2.618-3.017-6.68-4.356-10.579-3.487
				l-4.296,0.678c0.507-2.371-0.072-4.844-1.579-6.744c-2.622-3.008-6.677-4.343-10.572-3.48l-4.289,0.678
				c0.502-2.366-0.074-4.832-1.572-6.73c-2.622-3.016-6.683-4.356-10.586-3.493l-4.099,0.645l0.783-1.829
				c0.953-2.216,0.649-4.772-0.797-6.702c-1.446-1.93-3.813-2.941-6.208-2.649c-2.394,0.292-4.45,1.841-5.39,4.062l-4.086,9.566
				c-1.213,2.765-0.806,5.974,1.059,8.349c2.621,3.017,6.683,4.357,10.586,3.493l4.289-0.678c-0.502,2.368,0.074,4.836,1.572,6.737
				c2.623,3.01,6.68,4.348,10.579,3.487l4.296-0.678c-0.507,2.371,0.072,4.844,1.579,6.744c2.618,3.013,6.677,4.349,10.572,3.48
				l4.289-0.678c-0.502,2.366,0.074,4.832,1.572,6.73c2.045,2.45,5.114,3.809,8.303,3.678c0.765,0,1.528-0.062,2.283-0.184
				l16.138-2.566c3.664-0.595,6.156-4.042,5.572-7.707C311.916,215.344,308.477,212.841,304.81,213.414z" fill="#493c35"/>
		</g>
	</g>
</g>
</svg>
