<svg height="512pt" viewBox="0 -93 512.00096 512" width="512pt" xmlns="http://www.w3.org/2000/svg"><path d="m479.566406 165.15625c0-39.4375 30.402344-75.972656 30.707032-76.332031 4.382812-5.183594-.175782-13.324219-6.886719-12.253907-47.890625 7.515626-74.957031 37.03125-88.667969 58.566407-17.832031-16.605469-44.582031-37.113281-80.261719-52.746094-8.808593-33.941406-39.996093-77.378906-41.371093-79.28125-1.621094-2.246094-4.347657-3.414063-7.089844-3.0390625-17.070313 2.3281255-34.914063 8.0742185-53.03125 17.0703125-3.710938 1.839844-5.226563 6.34375-3.382813 10.054687 1.839844 3.710938 6.339844 5.222657 10.046875 3.382813 15.058594-7.476563 29.804688-12.496094 43.914063-14.949219 6.585937 9.589844 23.960937 35.972656 32.875 59.585938-28.117188-10.082032-60.972657-16.824219-98.585938-16.824219-7.699219 0-15.125.226563-22.3125.640625 5.421875-4.332031 11.988281-9.242188 19.46875-14.1875 3.453125-2.285156 4.402344-6.9375 2.121094-10.394531-2.285156-3.453125-6.933594-4.402344-10.390625-2.121094-18.878906 12.480469-32.160156 24.625-36.839844 29.109375-59.625 7.832031-99.285156 29.429688-123.457031 48.15625-33.097656 25.644531-45.226563 51.335938-45.726563 52.417969-.925781 1.996093-.925781 4.300781 0 6.300781.5 1.082031 12.628907 26.769531 45.726563 52.414062 23.1875 17.964844 60.628906 38.566407 116.265625 47.132813 7.613281 11.402344 37.460938 49.335937 102.019531 57.582031 5.195313.664063 9.546875-4.316406 8.191407-9.378906l-12.613282-47.140625c20.859375-2.984375 41.160156-8.175781 60.683594-15.570313 3.871094-1.46875 5.824219-5.796874 4.359375-9.671874-1.46875-3.875-5.796875-5.824219-9.667969-4.359376-30.851562 11.683594-63.765625 17.609376-97.828125 17.609376-39.253906 0-71.363281-5.886719-97.292969-14.382813 3.632813-5.304687 6.902344-10.855469 9.75-16.597656 1.835938-3.710938.320313-8.214844-3.386718-10.054688-3.710938-1.839843-8.210938-.324219-10.050782 3.386719-3.109374 6.273438-6.78125 12.289062-10.933593 17.957031-21.152344-8.457031-37.460938-18.511719-49.578125-27.804687-24.019532-18.421875-36.191406-37.054688-40.347656-44.285156 4.082031-7.148438 15.9375-25.351563 39.609374-43.691407 12.253907-9.492187 28.792969-19.773437 50.320313-28.382812 15.429687 20.996093 23.558594 45.796875 23.558594 72.089843 0 9.277344-1.046875 18.519532-3.105469 27.46875-.902344 3.933594 1.574219 7.976563 5.484375 8.960938 4.019531 1.007812 8.199219-1.558594 9.128906-5.59375 2.3125-10.054688 3.484375-20.429688 3.484375-30.835938 0-27.617187-8.445312-54.714843-23.945312-77.390624 25.953125-8.507813 58.0625-14.378907 97.300781-14.378907 99.363281 0 163.710937 49.523438 193.222656 79.042969 3.492188 3.492188 9.546875 2.601562 11.894531-1.730469 8.808594-16.273437 28.085938-42.867187 63.984376-54.785156-9.898438 15.945313-22.359376 41.519531-22.359376 69.238281s12.460938 53.292969 22.359376 69.238282c-35.898438-11.917969-55.171876-38.511719-63.980469-54.78125-2.347657-4.335938-8.402344-5.222657-11.894531-1.734376-13.769532 13.777344-36.976563 33.625-69.339844 49.964844-3.648438 1.839844-5.15625 6.425782-3.3125 10.074219 1.839844 3.648437 6.421875 5.160156 10.070312 3.316406 29.195313-14.738281 51.347656-32.207031 66.246094-46.058593 13.710938 21.535156 40.777344 51.050781 88.667969 58.566406 6.703125 1.050781 11.261719-7.058594 6.890625-12.25-.308594-.367188-30.710938-36.902344-30.710938-76.339844zm-234.332031 105.53125 10.183594 38.0625c-23.28125-4.597656-43.585938-13.980469-60.488281-27.96875-4.375-3.621094-8.011719-7.160156-10.972657-10.347656 10.699219.960937 21.96875 1.496094 33.875 1.496094 9.21875 0 18.355469-.417969 27.402344-1.242188zm0 0"/><path d="m93.367188 165.15625c0-7.660156-6.207032-13.871094-13.867188-13.871094-7.65625 0-13.863281 6.210938-13.863281 13.871094s6.207031 13.871094 13.863281 13.871094c7.660156 0 13.867188-6.210938 13.867188-13.871094zm0 0"/></svg>