<svg height="503.60656pt" viewBox="0 0 503.60656 503.60656" width="503.60656pt" xmlns="http://www.w3.org/2000/svg"><path d="m243.410156 200.511719v16.785156c0 4.636719 3.757813 8.394531 8.394532 8.394531 4.632812 0 8.390624-3.757812 8.390624-8.394531v-16.785156c0-4.636719-3.757812-8.394531-8.390624-8.394531-4.636719 0-8.394532 3.757812-8.394532 8.394531zm0 0"/><path d="m251.804688 309.625c4.632812 0 8.390624-3.757812 8.390624-8.394531v-16.785157c0-4.636718-3.757812-8.394531-8.390624-8.394531-4.636719 0-8.394532 3.757813-8.394532 8.394531v16.785157c0 4.636719 3.757813 8.394531 8.394532 8.394531zm0 0"/><path d="m251.804688 0c-139.070313 0-251.804688 112.734375-251.804688 251.804688 0 139.066406 112.734375 251.800781 251.804688 251.800781 139.066406 0 251.800781-112.734375 251.800781-251.800781-.15625-139.003907-112.800781-251.648438-251.800781-251.804688zm0 486.820312c-129.796876 0-235.019532-105.222656-235.019532-235.015624 0-129.796876 105.222656-235.019532 235.019532-235.019532 129.792968 0 235.015624 105.222656 235.015624 235.019532-.144531 129.734374-105.28125 234.871093-235.015624 235.015624zm0 0"/><path d="m251.804688 33.566406c-51.585938.042969-101.484376 18.382813-140.816407 51.761719-.101562.082031-.136719.199219-.226562.285156-.09375.082031-.195313.101563-.277344.183594-.265625.335937-.5.6875-.707031 1.058594-.367188.449219-.6875.933593-.957032 1.445312-.183593.480469-.324218.980469-.417968 1.492188-.15625.523437-.261719 1.058593-.3125 1.601562.007812.523438.0625 1.042969.167968 1.554688.054688.542969.15625 1.078125.3125 1.601562.21875.5.484376.980469.796876 1.429688.179687.410156.394531.808593.644531 1.183593.085937.089844.203125.125.285156.214844.085937.09375.101563.203125.1875.289063l43.738281 43.738281c-1.722656 6.808594-2.714844 13.785156-2.964844 20.804688l-52.742187-52.742188c-.078125-.078125-.1875-.101562-.261719-.175781-.074218-.078125-.109375-.179688-.191406-.253907-.382812-.257812-.78125-.484374-1.203125-.671874-.445313-.328126-.921875-.609376-1.425781-.839844-.546875-.160156-1.109375-.269532-1.679688-.316406-.46875-.09375-.945312-.140626-1.425781-.144532-.570313.046875-1.132813.15625-1.679687.320313-.484376.089843-.964844.21875-1.425782.394531-.519531.265625-1.003906.589844-1.453125.964844-.382812.210937-.746093.449218-1.089843.722656-.074219.074219-.101563.183594-.175782.257812-.078125.078126-.175781.109376-.253906.203126-74.101562 86.496093-69.136719 215.460937 11.394531 296.007812 80.535157 80.542969 209.5 85.527344 296.007813 11.433594.085937-.066406.117187-.175782.203125-.25.082031-.074219.175781-.09375.25-.167969.277343-.347656.523437-.71875.738281-1.109375.359375-.441406.675781-.914062.941406-1.417969.1875-.492187.324219-1.003906.410156-1.527343.15625-.511719.261719-1.035157.3125-1.570313-.015624-.53125-.082031-1.0625-.195312-1.585937-.046875-.53125-.148438-1.058594-.300781-1.570313-.234375-.511719-.515625-1-.839844-1.460937-.1875-.40625-.410156-.800782-.664063-1.171876-.074218-.085937-.175781-.117187-.242187-.195312-.066406-.074219-.101563-.183594-.175781-.257812l-44.746094-44.746094c1.722656-6.8125 2.714844-13.789063 2.960938-20.808594l53.667968 53.667969c.085938.082031.203125.109375.296875.191406.089844.085937.125.195313.214844.277344.480469.351562.996094.648437 1.539063.890625.285156.191406.582031.359375.886718.511718.953125.382813 1.972656.582032 2.996094.589844 1.140625-.011718 2.265625-.253906 3.308594-.714844.335937-.1875.652344-.402343.957031-.636718.605469-.296875 1.167969-.671875 1.679687-1.109375.089844-.09375.117188-.210938.199219-.300781.085938-.09375.195313-.109376.269531-.203126 54.914063-64.839843 67.183594-155.664062 31.441407-232.746093-35.742188-77.085938-112.992188-126.402344-197.957031-126.382813zm0 49.4375c.382812 0 .769531 0 1.148437.058594 8.125.839844 16.785156 11.152344 23.148437 27.699219-16.066406-3.410157-32.667968-3.410157-48.730468 0 2.882812-8.59375 7.644531-16.4375 13.933594-22.964844 2.777343-2.855469 6.523437-4.5625 10.5-4.792969zm0 41.964844c10.128906.050781 20.191406 1.621094 29.855468 4.660156 2.394532 11.316406 3.636719 22.84375 3.707032 34.414063 0 2.316406-.117188 4.574219-.175782 6.863281-21.945312-5.285156-44.835937-5.285156-66.785156 0-.050781-1.675781-.175781-3.355469-.175781-5.128906-.039063-12.125 1.191406-24.222656 3.675781-36.089844 9.671875-3.066406 19.75-4.65625 29.898438-4.71875zm79.660156 66.761719c-9.097656-6.625-19.070313-11.964844-29.628906-15.863281.195312-3.960938.351562-7.949219.320312-11.984376-.078125-8.914062-.761719-17.8125-2.046875-26.632812 14.34375 7.886719 26.53125 19.175781 35.492187 32.875-.386718 7.359375-1.78125 14.625-4.136718 21.605469zm-52.953125 95.558593c2.632812 8.707032 4.46875 17.636719 5.480469 26.675782-21.125 5.40625-43.269532 5.40625-64.394532 0 1.023438-9.15625 2.898438-18.195313 5.597656-27 2.71875-9.003906 4.324219-18.304688 4.785157-27.699219h43.644531c.5 9.503906 2.140625 18.914063 4.886719 28.023437zm56.914062 44.578126c-8.9375 13.585937-21.054687 24.78125-35.300781 32.617187 1.367188-9.449219 2.050781-18.988281 2.039062-28.535156 0-3.410157-.183593-6.714844-.34375-10.074219 10.539063-3.890625 20.496094-9.214844 29.585938-15.820312 2.335938 7.050781 3.6875 14.390624 4.019531 21.8125zm-50.046875 4.097656c.039063 12.140625-1.191406 24.25-3.679687 36.132812-19.429688 6.222656-40.320313 6.222656-59.75 0-2.398438-11.316406-3.640625-22.847656-3.710938-34.414062 0-2.316406.117188-4.574219.175781-6.863282 21.949219 5.285157 44.839844 5.285157 66.785157 0 .050781 1.726563.179687 3.414063.179687 5.144532zm-113.238281-25.953125c9.097656 6.625 19.070313 11.964843 29.628906 15.863281-.191406 3.960938-.351562 7.949219-.320312 11.984375.082031 8.914063.765625 17.8125 2.050781 26.632813-14.347656-7.886719-26.535156-19.175782-35.496094-32.875.390625-7.355469 1.78125-14.625 4.136719-21.605469zm106.269531-95.230469c-2.71875 9-4.324218 18.304688-4.785156 27.695312h-43.644531c-.503907-9.503906-2.144531-18.910156-4.894531-28.023437-2.632813-8.707031-4.46875-17.636719-5.480469-26.675781 21.125-5.40625 43.269531-5.40625 64.394531 0-1.023438 9.15625-2.894531 18.195312-5.589844 27.003906zm-76.625-38.863281c-10.539062 3.890625-20.496094 9.214843-29.585937 15.820312-2.335938-7.054687-3.6875-14.398437-4.019531-21.820312 8.9375-13.585938 21.054687-24.78125 35.300781-32.617188-1.367188 9.449219-2.050781 18.988281-2.039063 28.535157 0 3.351562.1875 6.691406.34375 10.046874zm1.554688 17.492187c1.195312 8.839844 3.113281 17.570313 5.742187 26.09375 2.25 7.476563 3.628907 15.183594 4.113281 22.972656h-19.398437c-1.328125-10.867187-5.253906-21.253906-11.449219-30.28125-1.074218-1.554687-1.871094-3.230468-2.828125-4.835937 7.269531-5.71875 15.28125-10.421875 23.820313-13.984375zm-20.789063 95.84375c6.164063-8.917968 10.039063-19.21875 11.289063-29.988281h19.355468c-.441406 7.683594-1.789062 15.292969-4.015624 22.660156-2.691407 8.640625-4.65625 17.492188-5.875 26.457031-8.601563-3.582031-16.675782-8.328124-23.988282-14.109374 1.035156-1.703126 2.089844-3.382813 3.234375-5.019532zm25.289063 95.855469c2.507812 9.332031 6.203125 18.308594 10.984375 26.707031-21.394531-9.328125-38.0625-26.96875-46.164063-48.859375 10.300782 9.4375 22.214844 16.941407 35.179688 22.152344zm42.621094 33.53125c-8.082032-.957031-16.695313-11.222656-22.992188-27.632813 16.066406 3.410157 32.667969 3.410157 48.734375 0-2.886719 8.59375-7.644531 16.4375-13.933594 22.964844-2.777343 2.78125-6.480469 4.445313-10.40625 4.675782zm45.222656-33.472656c13.117187-5.265625 25.160156-12.878907 35.539062-22.46875-4.289062 12.457031-11.511718 23.703125-21.058594 32.78125-7.394531 7.035156-16.007812 12.667969-25.417968 16.621093 4.777344-8.476562 8.453125-17.527343 10.9375-26.933593zm4.582031-76.777344c-1.191406-8.839844-3.113281-17.566406-5.738281-26.09375-2.257813-7.492187-3.636719-15.222656-4.113282-23.03125h19.394532c1.328125 10.867187 5.253906 21.253906 11.449218 30.28125 1.074219 1.554687 1.871094 3.234375 2.828126 4.835937-7.269532 5.71875-15.28125 10.421876-23.820313 13.984376zm20.792969-95.878906c-6.164063 8.914062-10.039063 19.203125-11.289063 29.964843h-19.355469c.4375-7.683593 1.785157-15.289062 4.011719-22.660156 2.691407-8.640625 4.65625-17.488281 5.875-26.457031 8.605469 3.582031 16.675781 8.332031 23.988281 14.109375-1.03125 1.703125-2.089843 3.382812-3.230468 5.019531zm-25.289063-95.851563c-2.511719-9.332031-6.203125-18.308594-10.988281-26.707031 21.378906 9.335937 38.03125 26.976563 46.121094 48.859375-10.285156-9.445312-22.183594-16.957031-35.132813-22.175781zm-87.847656-.082031c-13.113281 5.261719-25.15625 12.878906-35.539063 22.46875 4.292969-12.460937 11.515626-23.703125 21.0625-32.785156 7.394532-7.054688 16.015626-12.699219 25.4375-16.652344-4.785156 8.484375-8.46875 17.546875-10.960937 26.96875zm167.660156 293.691406c-80.007812 62.902344-194.402343 56.074219-266.363281-15.886719-71.964844-71.964843-78.785156-186.359374-15.882812-266.367187l60.382812 60.382813c2.808594 11.941406 7.832031 23.246093 14.8125 33.332031 5.867188 8.5 9.046875 18.570312 9.125 28.898437 0 .082032-.050781.160156-.050781.242188.011719.078125.027343.152344.050781.226562.019531 10.195313-3.078125 20.15625-8.882812 28.539063-3.023438 4.339843-5.695313 8.914062-7.988282 13.679687l-.066406.152344c-6.667969 13.863281-9.96875 29.105469-9.636719 44.484375 1.441407 52.59375 43.273438 95.132813 95.835938 97.457031 1.613281.074219 3.214843.109375 4.808593.117188h.152344c26.03125.101562 51.085938-9.910156 69.875-27.925782 8.914063-8.511718 16.167969-18.605468 21.386719-29.769531zm35.570313-35.671875-61.273438-61.269531c-2.808594-11.941406-7.832031-23.246094-14.8125-33.332031-5.867187-8.5-9.042968-18.570313-9.125-28.898438 0-.082031.050782-.160156.050782-.242187-.011719-.078125-.027344-.152344-.050782-.226563-.019531-10.195312 3.078125-20.15625 8.882813-28.539062 3.023437-4.339844 5.695312-8.914063 7.988281-13.679688l.066406-.152344c6.667969-13.859374 9.972656-29.09375 9.644532-44.46875-1.4375-46.609374-34.644532-86.15625-80.300782-95.636718-45.660156-9.480469-91.863281 13.578125-111.738281 55.761718l-31.386719-31.382812c80.046875-61.96875 193.675782-54.761719 265.25 16.816406 71.578125 71.582032 78.777344 185.210938 16.804688 265.25zm0 0"/></svg>