<svg xmlns="http://www.w3.org/2000/svg" viewBox="0 0 239.04 93.55"><title>Ресурс 1</title><g id="Слой_2" data-name="Слой 2"><g id="Слой_1-2" data-name="Слой 1"><path d="M94.1,59.11a30.33,30.33,0,0,1-3.48,8.56,82,82,0,0,1-5.05,7.51A50.87,50.87,0,0,1,72.34,87.67a35.11,35.11,0,0,1-17.43,5.44,38.88,38.88,0,0,1-9.12-.77,46.36,46.36,0,0,1-8.69-2.62,74.54,74.54,0,0,1-15.58-8.9c-2.39-1.78-4.75-3.62-7-5.61-1.11-1-2.22-2-3.26-3.05A21.24,21.24,0,0,1,8.4,68.75a48,48,0,0,1-4.16-7.91,53.77,53.77,0,0,1-2.81-8.49,38.88,38.88,0,0,1-.24-17.93,34.91,34.91,0,0,1,3.22-8.52,46,46,0,0,1,5.06-7.56A50.93,50.93,0,0,1,23.29,6.64a49.87,49.87,0,0,1,17-6.06A37.26,37.26,0,0,1,58.15,2a37.78,37.78,0,0,1,8,4,59.93,59.93,0,0,1,7.15,5.41,75.22,75.22,0,0,1,12,13.35,56,56,0,0,1,8,16.15A35.27,35.27,0,0,1,94.1,59.11Z" style="fill:#fff"/><path d="M93.54,41.07a56.25,56.25,0,0,0-8-16.24,75.62,75.62,0,0,0-12-13.42A60.3,60.3,0,0,0,66.28,6,38,38,0,0,0,58.21,1.9a37.45,37.45,0,0,0-18-1.41A50.13,50.13,0,0,0,23.16,6.58,51.2,51.2,0,0,0,9.27,18.34a46.26,46.26,0,0,0-5.09,7.6A35.12,35.12,0,0,0,.94,34.51a39.09,39.09,0,0,0,.24,18A54,54,0,0,0,4,61.08,48.21,48.21,0,0,0,8.19,69a21.34,21.34,0,0,0,2.91,3.43c1,1.07,2.16,2.08,3.28,3.07,2.23,2,4.6,3.85,7,5.64a74.89,74.89,0,0,0,15.66,9,46.61,46.61,0,0,0,8.74,2.63,39.08,39.08,0,0,0,9.17.77A35.3,35.3,0,0,0,72.47,88a51.15,51.15,0,0,0,13.3-12.56,82.34,82.34,0,0,0,5.08-7.55,30.47,30.47,0,0,0,3.5-8.61A35.44,35.44,0,0,0,93.54,41.07ZM92.11,58.78a28.17,28.17,0,0,1-3.34,7.89,83,83,0,0,1-5,7.26,50.94,50.94,0,0,1-12.66,11.9,33.66,33.66,0,0,1-16.25,5.32,45.73,45.73,0,0,1-17.22-2.54,71.63,71.63,0,0,1-15.84-8,77.41,77.41,0,0,1-7.15-5.35c-1.15-1-2.25-2-3.31-3A21,21,0,0,1,8.4,68.9h0A47.41,47.41,0,0,1,1.81,52.4a37.76,37.76,0,0,1,.63-17.5,42.6,42.6,0,0,1,8.49-15.18A55.25,55.25,0,0,1,24.21,8.34a49.07,49.07,0,0,1,16.28-6.5,39.15,39.15,0,0,1,8.78-.73A31.69,31.69,0,0,1,58,2.65c5.6,1.91,10.52,5.48,14.94,9.41A67.15,67.15,0,0,1,84.38,25.58a57.34,57.34,0,0,1,7.28,16A34.4,34.4,0,0,1,92.11,58.78Z" style="fill:#1b171b"/><path d="M45.17,8C52.39,15.07,66,21.44,65.53,35.52c-.24,6.65-4.71,9.47-7.66,13.89C70.81,47.49,74,59,76.79,68.81,65.48,69.55,52.37,68,49.24,59c-5.14,4.2-9.14,11.84-20.12,10.78-5.28-.51-5-3.36-11.31-6.19-2-.87-3.48-.66-4.67-1,2.69-8.14,14.52-16.39,24.84-12,3.46,1.48,5.83,4.92,9.82,5.75-2.18-3.13-5.36-6-7.9-9.58-2.31-3.29-5.17-7.48-5.75-12C32.52,22,43.72,18.68,45.17,8ZM55,19.09c-.23-1.86-6.94-6.72-9-7.68-1,3.06-3.83,4.74-3.95,8.07C42,21.87,44.27,24,45.78,26a26.8,26.8,0,0,1,3.84,7.56C49,28.23,55.57,23.32,55,19.09ZM40.67,20c-.24,0-4.9,6.09-4.65,9.55.35,5,7.49,5.89,12.27,7.14C48,29.27,42.58,25.86,40.67,20ZM51.61,39.29c1.7-.75,3.5-4.22,5.3-6.17s4-3.79,3.83-6.23c-.24-2.71-2.58-4.62-4.2-6.59C55.1,25.68,49.13,32.8,51.61,39.29Zm.27,5.81c2.4-1.88,5.56,0,7.66-2.16A11.71,11.71,0,0,0,61,40.07c1.4-3.22,2.53-7.32.48-11.26C58.33,34.17,52.22,37.76,51.88,45.1ZM39.66,41c1.61,1.13,3.4.44,5.75,1,1.24.27,2.53,1.78,4.07,1.68-.27-1.81-.54-3.61-1-5.27a56.44,56.44,0,0,1-12.21-5.27C37.26,36.91,37.39,39.43,39.66,41ZM48.45,53.8c-.14-2.6,1.4-4.24,1.28-6.3-.25-4.06-5.24-4.66-9.82-5C41.89,46.78,44,51.92,48.45,53.8Zm9.18-8.7c-4.64-.86-7.85,3.7-7.46,9.33C53,52,56.22,49,57.62,45.1ZM34.72,56.4c-1.93-2-9.23-6.93-11.82-1.72,2.6.35,4.07,3.94,6.95,4.55,3.25.69,6.59-.28,10.06,0C38,58.94,35.8,57.29,34.72,56.4Zm17.88,0c5.56,4.43,9.69-2.47,14.51-3C64.64,50.08,53.09,51.72,52.6,56.36ZM30.08,52.19a17.27,17.27,0,0,1,3.1,2c1.84,2.23,7.44,6,10.07,2.66C39.83,54.86,35.69,49.65,30.08,52.19Zm29.46,6.09c1.57,3.63,8.57.71,12,2.16-.61-2-1-4.33-2.4-5.51C64.64,53.83,62.39,56.95,59.54,58.27ZM28.46,59.74c-2.87-1.28-3.77-3.89-7.48-4.34a10.63,10.63,0,0,0-5.64,6.31c3.83,2.11,13.63,1.45,16.41-1.76A12.16,12.16,0,0,1,28.46,59.74Zm8.09,2.37c-1.43,1-1,2.69-1.92,4.07s-2.39,1.13-3.35,2.39c6.67-1,12.49-4.11,14.13-9.34C43.25,61.94,39,60.42,36.55,62.11Zm15.33-2.63c.84,3.15,3.28,4.7,6.23,5.75C59.05,61.37,55.45,58.79,51.88,59.47ZM66,67.37c-1.75-3-3.38-6-7.18-6.95C58.68,65.12,61.72,68.64,66,67.37Zm6.23-5.51c-1.95-1-6.15-1.48-8.26-.28,1.26,3.87,5.87,8.13,10.65,5.55A13.39,13.39,0,0,0,72.23,61.87ZM22.9,64.5c1.52,3.52,8.2,4.62,10.78,1.2,1-1.39.53-3.09,1.92-4.31C30.6,61.66,27.19,63.52,22.9,64.5Z" style="fill:#1b171b;fill-rule:evenodd"/><path d="M33,44.62c-4.53-3.15-5.86,1.3-10.3-3.83,1.85-1.05,4.11-2.83,6.23-2.4C31.44,38.91,31.77,42.53,33,44.62Z" style="fill:#1b171b;fill-rule:evenodd"/><path d="M75.59,40.79c-1.48,3.31-5.24,5.61-10.06,4.79C68.2,43.66,71.26,38,75.59,40.79Z" style="fill:#1b171b;fill-rule:evenodd"/><path d="M48,65.46c4.18,5.41,2.1,6-1.44,9.34C43.91,68.46,45.74,67.78,48,65.46Z" style="fill:#1b171b;fill-rule:evenodd"/><path d="M114,46.4h2.58v4.28a6.72,6.72,0,0,1-2,1,8.09,8.09,0,0,1-2.3.34,6.16,6.16,0,0,1-2.92-.69,5.11,5.11,0,0,1-2-1.91,5.58,5.58,0,0,1,0-5.55,5.1,5.1,0,0,1,2-1.91,6.31,6.31,0,0,1,3-.69,6.59,6.59,0,0,1,2.6.49,5,5,0,0,1,1.92,1.4l-1.86,1.68a3.28,3.28,0,0,0-2.51-1.15,2.78,2.78,0,0,0-3,3,3.11,3.11,0,0,0,.37,1.53,2.63,2.63,0,0,0,1,1,3,3,0,0,0,1.52.38,3.73,3.73,0,0,0,1.58-.34Z" style="fill:#1b171b"/><path d="M121.06,50.73a4.76,4.76,0,0,1-1.28-3.55V41.46h2.92v5.63q0,2.48,2,2.48t1.95-2.48V41.46h2.88v5.72a4.76,4.76,0,0,1-1.28,3.55,5.73,5.73,0,0,1-7.15,0Z" style="fill:#1b171b"/><path d="M137.45,49h-1.59v2.74h-2.92V41.46h4.72a5.89,5.89,0,0,1,2.43.46,3.76,3.76,0,0,1,1.63,5.31,3.53,3.53,0,0,1-1.5,1.3l2.23,3.25h-3.13Zm1.39-4.88a2,2,0,0,0-1.36-.4h-1.62v3h1.62a2,2,0,0,0,1.36-.39,1.39,1.39,0,0,0,.46-1.11A1.4,1.4,0,0,0,138.84,44.15Z" style="fill:#1b171b"/><path d="M146.52,50.73a4.76,4.76,0,0,1-1.28-3.55V41.46h2.92v5.63q0,2.48,2,2.48t1.95-2.48V41.46h2.88v5.72a4.76,4.76,0,0,1-1.28,3.55,5.73,5.73,0,0,1-7.15,0Z" style="fill:#1b171b"/><path d="M161.32,43.71V46h4.56v2.26h-4.56v3.54h-2.92V41.46h8.1v2.26Z" style="fill:#1b171b"/><path d="M171.52,51.29a5.28,5.28,0,0,1,0-9.35,6.59,6.59,0,0,1,5.88,0,5.28,5.28,0,0,1,0,9.35,6.6,6.6,0,0,1-5.88,0Zm4.36-2.09a2.66,2.66,0,0,0,1-1,3.41,3.41,0,0,0,0-3.08,2.66,2.66,0,0,0-1-1A2.9,2.9,0,0,0,173,44a2.64,2.64,0,0,0-1,1,3.4,3.4,0,0,0,0,3.08,2.65,2.65,0,0,0,1,1,2.91,2.91,0,0,0,2.83,0Z" style="fill:#1b171b"/><path d="M187.72,49h-1.59v2.74H183.2V41.46h4.72a5.89,5.89,0,0,1,2.43.46A3.76,3.76,0,0,1,192,47.23a3.53,3.53,0,0,1-1.5,1.3l2.23,3.25h-3.13Zm1.39-4.88a2,2,0,0,0-1.36-.4h-1.62v3h1.62a2,2,0,0,0,1.36-.39,1.39,1.39,0,0,0,.46-1.11A1.41,1.41,0,0,0,189.1,44.15Z" style="fill:#1b171b"/><path d="M195.44,51.44a1.6,1.6,0,0,1-.49-1.2,1.57,1.57,0,0,1,.48-1.19,1.82,1.82,0,0,1,2.41,0,1.59,1.59,0,0,1,.47,1.19,1.61,1.61,0,0,1-.48,1.2,1.76,1.76,0,0,1-2.4,0Z" style="fill:#1b171b"/><path d="M203.18,51.3a5.12,5.12,0,0,1-2-1.91,5.58,5.58,0,0,1,0-5.55,5.14,5.14,0,0,1,2-1.91,6.11,6.11,0,0,1,2.91-.69,6.26,6.26,0,0,1,2.55.5,4.91,4.91,0,0,1,1.89,1.45l-1.86,1.68a3.05,3.05,0,0,0-2.43-1.21,3,3,0,0,0-1.5.37,2.56,2.56,0,0,0-1,1,3.47,3.47,0,0,0,0,3.08,2.56,2.56,0,0,0,1,1,3,3,0,0,0,1.5.37,3.05,3.05,0,0,0,2.43-1.21L210.53,50a4.91,4.91,0,0,1-1.89,1.45,6.26,6.26,0,0,1-2.55.5A6.11,6.11,0,0,1,203.18,51.3Z" style="fill:#1b171b"/><path d="M215.35,51.29a5.28,5.28,0,0,1,0-9.35,6.59,6.59,0,0,1,5.88,0,5.28,5.28,0,0,1,0,9.35,6.6,6.6,0,0,1-5.88,0Zm4.36-2.09a2.66,2.66,0,0,0,1-1,3.41,3.41,0,0,0,0-3.08,2.66,2.66,0,0,0-1-1,2.9,2.9,0,0,0-2.83,0,2.64,2.64,0,0,0-1,1,3.4,3.4,0,0,0,0,3.08,2.65,2.65,0,0,0,1,1,2.91,2.91,0,0,0,2.83,0Z" style="fill:#1b171b"/><path d="M236.36,51.78l0-5.47-2.65,4.45h-1.3l-2.64-4.31v5.32H227V41.46h2.4l3.63,6,3.54-6H239l0,10.32Z" style="fill:#1b171b"/></g></g></svg>