<svg id="Capa_1" enable-background="new 0 0 512 512" height="512" viewBox="0 0 512 512" width="512" xmlns="http://www.w3.org/2000/svg"><g><path d="m512 259.399c0-36.828-20.832-71.245-58.657-96.913-36.935-25.063-85.901-38.865-137.88-38.865s-100.944 13.803-137.879 38.865c-37.825 25.668-58.657 60.085-58.657 96.913 0 26.634 11.063 52.382 31.99 74.461.111.117.23.231.343.348-.293.147-56.628 38.326-56.628 38.326-2.444 1.657-4.578.521-5.381-.045-.816-.573-2.635-2.221-1.89-5.134l11.051-43.193c.9-3.517-.848-7.172-4.149-8.681-49.632-22.674-79.263-59.94-79.263-99.689 0-66.602 81.438-120.786 181.541-120.786 31.53 0 62.602 5.499 89.854 15.901 3.869 1.478 8.204-.463 9.682-4.332 1.478-3.87-.463-8.205-4.332-9.682-28.942-11.048-61.863-16.887-95.203-16.887-51.98 0-100.948 13.804-137.884 38.87-37.827 25.67-58.658 60.088-58.658 96.916 0 44.188 30.655 85.194 82.349 110.638l-9.519 37.208c-2.062 8.057.999 16.35 7.798 21.125 3.434 2.412 7.388 3.621 11.345 3.62 3.851 0 7.704-1.145 11.081-3.437l59.307-40.503c19.093 16.833 42.506 29.031 69.345 37.885 3.939 1.278 8.17-.879 9.448-4.819s-.879-8.17-4.819-9.448c-22.879-7.423-43.078-17.923-59.43-30.799-24.84-18.768-43.708-49.169-42.979-77.862 0-66.597 81.437-120.778 181.536-120.778s181.538 54.18 181.538 120.777c0 39.756-29.63 77.022-79.259 99.687-3.302 1.508-5.05 5.164-4.151 8.68l11.045 43.197c.745 2.916-1.073 4.564-1.89 5.138-.805.565-2.943 1.701-5.384.043l-55.768-37.835c-1.567-1.063-3.479-1.495-5.35-1.207-13.283 2.041-27.004 3.075-40.781 3.075-20.618 0-37.09-1.544-53.406-5.007-4.044-.858-8.033 1.727-8.894 5.779-.859 4.052 1.728 8.034 5.78 8.894 17.381 3.689 34.813 5.334 56.52 5.334 13.527 0 27.011-.946 40.127-2.815l53.35 36.194c3.379 2.293 7.233 3.438 11.085 3.438 3.957 0 7.911-1.208 11.344-3.62 6.798-4.775 9.859-13.068 7.8-21.127l-9.515-37.211c51.693-25.435 82.347-66.44 82.347-110.637z" fill="#0cc11a"/></g></svg>