<svg width="30" height="30" viewBox="0 0 30 30" fill="none" xmlns="http://www.w3.org/2000/svg">
<g clip-path="url(#clip0)">
<mask id="mask0" mask-type="alpha" maskUnits="userSpaceOnUse" x="0" y="0" width="30" height="32">
<rect width="30" height="31.2826" fill="white"/>
</mask>
<g mask="url(#mask0)">
</g>
<g clip-path="url(#clip1)">
<path d="M19.5021 9.34314C19.1997 9.34314 18.9536 9.59975 18.9536 9.91502C18.9536 10.2303 19.1997 10.4869 19.5021 10.4869C19.8044 10.4869 20.0505 10.2303 20.0505 9.91502C20.0575 9.59975 19.8114 9.34314 19.5021 9.34314Z" fill="#493C35"/>
<path d="M21.7532 17.8197L22.1892 8.86013C22.2384 7.87766 21.486 7.04916 20.5438 7.04916H11.8673L11.2556 3.73516C11.2204 3.54453 11.0938 3.38323 10.9181 3.30991L5.42665 1.02237C5.1454 0.905064 4.829 1.04437 4.7165 1.33764C4.604 1.63092 4.73759 1.96818 5.02587 2.08549L10.2431 4.26305L10.7563 7.05649H9.68056C8.73837 7.05649 7.98603 7.88499 8.03525 8.86746L9.01962 28.6855C9.06181 29.5873 9.78603 30.3058 10.6579 30.3058H20.6001C23.9329 30.3058 26.6399 27.4904 26.6399 24.0077C26.647 20.9137 24.5235 18.3769 21.7532 17.8197ZM25.5149 23.4359H21.929L24.4673 20.7891C25.0509 21.5516 25.4165 22.4607 25.5149 23.4359ZM21.1556 18.8828C22.0837 18.9928 22.9626 19.374 23.6938 19.9752L21.1556 22.622V18.8828ZM9.13212 8.80147C9.11806 8.47154 9.36415 8.20026 9.68056 8.20026H10.9673L12.1204 14.4323C11.5579 14.5057 10.9743 14.3664 10.4821 14.0291C10.1446 13.7945 9.76493 13.6185 9.37118 13.5232L9.13212 8.80147ZM10.6579 29.162C10.3626 29.162 10.1235 28.9201 10.1095 28.6195L10.0813 28.0183H15.9454C16.297 28.4582 16.6837 28.8394 17.1267 29.162H10.6579ZM19.2782 24.5796L16.7399 27.2264C16.7118 27.1824 16.6767 27.1458 16.6485 27.1018C16.1142 26.3613 15.7837 25.4961 15.6923 24.5796H19.2782ZM15.6923 23.4359C15.7977 22.4607 16.1563 21.5516 16.7399 20.7891L19.2782 23.4359H15.6923ZM20.0587 29.1254C19.1235 29.0154 18.2517 28.6415 17.5204 28.0329L20.0587 25.3861V29.1254ZM20.0587 22.622L17.5204 19.9752C18.2517 19.3667 19.1235 18.9854 20.0587 18.8828V22.622ZM20.6634 17.7023C20.6423 17.7023 20.6282 17.7023 20.6071 17.7023C17.2743 17.7023 14.5673 20.5178 14.5673 24.0004C14.5673 25.0122 14.7923 25.9873 15.2282 26.8672H10.0251L9.4204 14.7329C9.57509 14.7989 9.72275 14.8796 9.86337 14.9749C11.0517 15.7961 12.5845 15.7961 13.7657 14.9749C14.5813 14.4103 15.636 14.4103 16.4517 14.9749C17.0423 15.3855 17.7243 15.5908 18.4063 15.5908C19.0884 15.5908 19.7634 15.3855 20.361 14.9749C20.5017 14.8796 20.6493 14.7989 20.804 14.7329L20.6634 17.7023ZM21.0923 8.80147L20.8602 13.5085C20.4665 13.6112 20.0868 13.7798 19.7493 14.0218C18.9337 14.5863 17.879 14.5863 17.0634 14.0218C15.8751 13.2006 14.3423 13.2006 13.161 14.0218C13.161 14.0218 13.161 14.0218 13.154 14.0218L12.0782 8.19293H20.5438C20.8602 8.19293 21.1134 8.47154 21.0923 8.80147ZM21.1556 29.1254V25.3861L23.6938 28.0329C22.9626 28.6415 22.0837 29.0227 21.1556 29.1254ZM24.4673 27.2191L21.929 24.5723H25.5149C25.4165 25.5401 25.0509 26.4639 24.4673 27.2191Z" fill="#493C35"/>
<path d="M17.3086 9.34314H15.1148C14.8125 9.34314 14.5664 9.59975 14.5664 9.91502C14.5664 10.2303 14.8125 10.4869 15.1148 10.4869H17.3086C17.6109 10.4869 17.857 10.2303 17.857 9.91502C17.857 9.59975 17.6109 9.34314 17.3086 9.34314Z" fill="#493C35"/>
</g>
</g>
<defs>
<clipPath id="clip0">
<rect width="30" height="30" fill="white"/>
</clipPath>
<clipPath id="clip1">
<rect width="21.9727" height="29.3274" fill="white" transform="translate(4.67334 0.977539)"/>
</clipPath>
</defs>
</svg>
