<svg width="30" height="30" viewBox="0 0 30 30" fill="none" xmlns="http://www.w3.org/2000/svg">
<g clip-path="url(#clip0)">
<mask id="mask0" mask-type="alpha" maskUnits="userSpaceOnUse" x="0" y="0" width="30" height="32">
<rect width="30" height="31.2826" fill="white"/>
</mask>
<g mask="url(#mask0)">
</g>
<g clip-path="url(#clip1)">
<path d="M1.585 30H27.955C28.2775 30 28.54 29.7375 28.54 29.415C28.54 29.0925 28.2775 28.83 27.955 28.83H23.3275C24.385 25.8 25.0225 21.285 25.0225 16.7625C25.0225 8.7225 22.9 0 19.165 0C16.5925 0 15.13 4.08 14.4775 6.5925C13.7875 4.635 12.4525 1.7625 10.375 1.7625C8.9575 1.7625 7.6675 3.0525 6.6325 5.49C6.505 5.79 6.6475 6.135 6.9475 6.255C7.2475 6.3825 7.5925 6.24 7.7125 5.94C8.5225 4.0275 9.49 2.925 10.375 2.925C11.6125 2.925 13.0225 5.28 13.9675 8.9325C13.93 9.15 13.8925 9.375 13.855 9.6C13.645 10.9125 13.495 12.2925 13.405 13.71C13.345 14.7075 13.3075 15.7275 13.3075 16.755C13.3075 17.685 13.3375 18.6225 13.39 19.545C12.49 19.335 11.65 18.8925 10.9675 18.2625V9.375C10.9675 9.0525 10.705 8.79 10.3825 8.79C10.06 8.79 9.7975 9.0525 9.7975 9.375V17.28C8.725 16.56 7.465 16.17 6.1375 16.17H5.7475C5.8375 14.325 6.0325 12.5475 6.3325 10.89C6.3925 10.575 6.175 10.2675 5.86 10.2075C5.545 10.1475 5.2375 10.365 5.1775 10.68C4.72 13.215 4.51 15.9075 4.51 18.5175C4.51 22.5975 5.0125 26.3025 5.665 28.83H1.585C1.2625 28.83 1 29.0925 1 29.415C1 29.7375 1.2625 30 1.585 30ZM10.96 23.6925C11.8975 24.06 12.8875 24.2775 13.9075 24.345C14.1925 26.04 14.56 27.5625 15.0025 28.8225H10.96V23.6925ZM18.8125 13.71C19.0225 13.8675 19.3075 13.8675 19.5175 13.71L23.4625 10.755C23.5825 11.64 23.6725 12.5475 23.74 13.4775L19.165 16.905L14.59 13.4775C14.6575 12.5475 14.7475 11.64 14.8675 10.755L18.8125 13.71ZM18.58 17.9325V28.83H16.2475C14.9425 25.3875 14.4775 20.4675 14.4775 16.7625C14.4775 16.1325 14.4925 15.51 14.515 14.8875L18.58 17.9325ZM22.0825 28.83H19.75V17.9325L23.815 14.8875C23.8375 15.51 23.8525 16.1325 23.8525 16.7625C23.8525 21.36 23.1775 25.935 22.0825 28.83ZM19.165 1.17C20.755 1.17 22.42 4.5525 23.26 9.435L19.75 12.0675V5.8575C19.75 5.535 19.4875 5.2725 19.165 5.2725C18.8425 5.2725 18.58 5.535 18.58 5.8575V12.0675L15.07 9.435C15.46 7.1625 16.87 1.17 19.165 1.17ZM9.9625 18.93C10.915 19.8825 12.145 20.52 13.4725 20.76C13.54 21.5775 13.63 22.38 13.735 23.16C12.655 23.055 11.6125 22.755 10.645 22.275C9.7825 21.8475 9.0025 21.2775 8.3125 20.5875C7.7425 20.0175 6.9475 19.6875 6.1375 19.6875H5.7025C5.695 19.2975 5.6875 18.9075 5.6875 18.5175C5.6875 18.1275 5.695 17.7375 5.7025 17.3475H6.13C7.5775 17.3475 8.935 17.91 9.9625 18.93ZM5.7475 20.8575H6.1375C6.64 20.8575 7.1275 21.06 7.48 21.4125C8.17 22.1025 8.95 22.6875 9.7975 23.145V28.8225H6.8875C6.295 26.67 5.89 23.82 5.7475 20.8575Z" fill="#493C35"/>
<path d="M6.29496 8.79C6.61805 8.79 6.87996 8.52808 6.87996 8.205C6.87996 7.88191 6.61805 7.62 6.29496 7.62C5.97187 7.62 5.70996 7.88191 5.70996 8.205C5.70996 8.52808 5.97187 8.79 6.29496 8.79Z" fill="#493C35"/>
</g>
</g>
<defs>
<clipPath id="clip0">
<rect width="30" height="30" fill="white"/>
</clipPath>
<clipPath id="clip1">
<rect width="27.54" height="30" fill="white" transform="translate(1)"/>
</clipPath>
</defs>
</svg>
