<svg width="30" height="30" viewBox="0 0 30 30" fill="none" xmlns="http://www.w3.org/2000/svg">
<g clip-path="url(#clip0)">
<mask id="mask0" mask-type="alpha" maskUnits="userSpaceOnUse" x="0" y="0" width="30" height="32">
<rect width="30" height="31.2826" fill="white"/>
</mask>
<g mask="url(#mask0)">
</g>
<g clip-path="url(#clip1)">
<path d="M15.2742 1.05074C15.1055 0.948093 14.9016 0.948093 14.7328 1.05074C12.307 2.48778 10.2398 4.65068 8.76328 7.29015C7.27969 9.94428 6.49219 12.877 6.49219 15.7878C6.49219 18.6252 7.24453 21.0007 8.79844 23.0536C10.05 24.7106 11.8008 26.177 14.4516 27.7754V29.733C14.4516 30.0482 14.6977 30.3048 15 30.3048C15.3023 30.3048 15.5484 30.0482 15.5484 29.733V27.7754C18.1992 26.177 19.95 24.718 21.2016 23.0536C22.7484 21.0007 23.5078 18.6252 23.5078 15.7878C23.5078 12.877 22.7273 9.94428 21.2438 7.29748C19.7672 4.65068 17.7 2.48778 15.2742 1.05074ZM15.5484 26.441V21.6679L20.0414 16.9829C20.2523 16.7629 20.2523 16.3963 20.0414 16.1764C19.8234 15.9564 19.4789 15.9564 19.2609 16.1764L15.5414 20.0549V15.0546L19.3734 11.0587C19.5844 10.8314 19.5844 10.4722 19.3734 10.2522C19.1555 10.0323 18.8109 10.0249 18.593 10.2522L15.5344 13.4416V8.64654C15.5344 8.33127 15.2883 8.07466 14.9859 8.07466C14.6836 8.07466 14.4375 8.33127 14.4375 8.64654V13.4416L11.3789 10.2522C11.1609 10.0249 10.8164 10.0249 10.5984 10.2522C10.3875 10.4722 10.3875 10.8388 10.5984 11.0587L14.4305 15.0546V20.0549L10.7109 16.1764C10.493 15.9564 10.1484 15.9564 9.93047 16.1764C9.71953 16.4036 9.71953 16.7629 9.93047 16.9829L14.4234 21.6679V26.441C10.275 23.8455 7.56797 20.9347 7.56797 15.7878C7.56797 10.3989 10.5352 4.98795 14.9719 2.2165C19.4156 4.98795 22.3758 10.3989 22.3758 15.7878C22.4039 20.9347 19.6969 23.8455 15.5484 26.441Z" fill="#493C35"/>
<path d="M28.5141 14.2189H26.3414C26.0391 14.2189 25.793 14.4755 25.793 14.7908C25.793 15.106 26.0391 15.3626 26.3414 15.3626H28.5141C28.8164 15.3626 29.0625 15.106 29.0625 14.7908C29.0625 14.4755 28.8164 14.2189 28.5141 14.2189Z" fill="#493C35"/>
<path d="M25.2936 11.5281C25.4342 11.5281 25.5748 11.4694 25.6803 11.3594L28.1764 8.75663C28.3873 8.52935 28.3873 8.17009 28.1764 7.9428C27.9584 7.72284 27.6139 7.72284 27.3959 7.9428L24.8998 10.5456C24.6818 10.7656 24.6818 11.1322 24.8998 11.3521C25.0123 11.4694 25.1529 11.5281 25.2936 11.5281Z" fill="#493C35"/>
<path d="M25.6806 18.2293C25.4626 18.0093 25.1181 18.0093 24.9071 18.2293C24.6892 18.4566 24.6892 18.8158 24.9071 19.0431L27.4384 21.6826C27.5438 21.7926 27.6845 21.8512 27.8251 21.8512C27.9657 21.8512 28.1063 21.7926 28.2118 21.6826C28.4298 21.4626 28.4298 21.0961 28.2118 20.8761L25.6806 18.2293Z" fill="#493C35"/>
<path d="M4.20703 14.7908C4.20703 14.4755 3.96094 14.2189 3.65859 14.2189H1.48594C1.18359 14.2189 0.9375 14.4755 0.9375 14.7908C0.9375 15.106 1.18359 15.3626 1.48594 15.3626H3.65859C3.96094 15.3626 4.20703 15.106 4.20703 14.7908Z" fill="#493C35"/>
<path d="M2.59668 7.9428C2.38574 7.71552 2.03418 7.71552 1.82324 7.9428C1.6123 8.16276 1.6123 8.52935 1.82324 8.74931L4.31934 11.3521C4.4248 11.4621 4.56543 11.5208 4.70605 11.5208C4.84668 11.5208 4.9873 11.4621 5.09277 11.3521C5.31074 11.1322 5.31074 10.7656 5.09277 10.5456L2.59668 7.9428Z" fill="#493C35"/>
<path d="M4.31973 18.2294L1.78848 20.8688C1.57051 21.0888 1.57051 21.4554 1.78848 21.6753C1.89395 21.7853 2.03457 21.844 2.1752 21.844C2.31582 21.844 2.45645 21.7853 2.56191 21.6753L5.09316 19.0359C5.31113 18.8086 5.31113 18.4493 5.09316 18.222C4.88223 18.0021 4.53066 18.0021 4.31973 18.2294Z" fill="#493C35"/>
<path d="M15.0001 5.48657C14.8524 5.48657 14.7118 5.54523 14.6134 5.6552C14.5149 5.76518 14.4517 5.91182 14.4517 6.05846C14.4517 6.20509 14.5079 6.35906 14.6134 6.46171C14.7188 6.56435 14.8524 6.63034 15.0001 6.63034C15.1478 6.63034 15.2884 6.57169 15.3868 6.46171C15.4853 6.35173 15.5485 6.20509 15.5485 6.05846C15.5485 5.91182 15.4923 5.75785 15.3868 5.6552C15.2813 5.55256 15.1478 5.48657 15.0001 5.48657Z" fill="#493C35"/>
</g>
</g>
<defs>
<clipPath id="clip0">
<rect width="30" height="30" fill="white"/>
</clipPath>
<clipPath id="clip1">
<rect width="28.125" height="29.3274" fill="white" transform="translate(0.9375 0.977539)"/>
</clipPath>
</defs>
</svg>
