<svg width="30" height="30" viewBox="0 0 30 30" fill="none" xmlns="http://www.w3.org/2000/svg">
<g clip-path="url(#clip0)">
<mask id="mask0" mask-type="alpha" maskUnits="userSpaceOnUse" x="0" y="0" width="30" height="32">
<rect width="30" height="31.2826" fill="white"/>
</mask>
<g mask="url(#mask0)">
</g>
<g clip-path="url(#clip1)">
<mask id="mask1" mask-type="alpha" maskUnits="userSpaceOnUse" x="0" y="0" width="31" height="32">
<rect x="0.328613" width="30" height="31.2826" fill="white"/>
</mask>
<g mask="url(#mask1)">
</g>
<g clip-path="url(#clip2)">
<path d="M10.7584 26.6317C10.9061 26.6317 11.0467 26.573 11.1451 26.4631C11.2436 26.3531 11.3068 26.2064 11.3068 26.0598C11.3068 25.9132 11.2506 25.7592 11.1451 25.6565C11.0396 25.5466 10.899 25.4879 10.7584 25.4879C10.6107 25.4879 10.4701 25.5466 10.3717 25.6565C10.2732 25.7665 10.21 25.9132 10.21 26.0598C10.21 26.2064 10.2662 26.3604 10.3717 26.4631C10.4701 26.573 10.6107 26.6317 10.7584 26.6317Z" fill="#493C35"/>
<path d="M28.8427 29.1612H26.1989L25.1935 27.2916V22.1886C25.1935 20.9862 24.4552 19.9377 23.3513 19.5785L19.1395 18.2147V13.559C19.1395 13.1264 19.02 12.7232 18.802 12.3786C19.9974 11.946 20.8622 10.7656 20.8622 9.37251C20.8622 7.71551 19.6388 6.35179 18.0849 6.20515V3.84429C18.0778 2.26061 16.8474 0.977539 15.3286 0.977539C15.0263 0.977539 14.7802 1.23415 14.7802 1.54942V6.1245H14.7731C14.295 6.10984 13.845 6.30047 13.5005 6.64506C13.156 6.98966 12.9591 7.4589 12.9521 7.95013C12.931 8.97659 13.7185 9.82709 14.7099 9.84908H14.745C14.6466 10.7876 14.3864 11.7114 13.9575 12.5619C13.8099 12.8625 13.7255 13.2071 13.7255 13.5517V18.4787L12.4036 20.9642L5.30908 25.6199C4.63408 26.0598 4.2333 26.8223 4.2333 27.6508V29.1612H1.81455C1.51221 29.1612 1.26611 29.4178 1.26611 29.7331C1.26611 30.0483 1.51221 30.305 1.81455 30.305H28.8427C29.145 30.305 29.3911 30.0483 29.3911 29.7331C29.3911 29.4178 29.145 29.1612 28.8427 29.1612ZM19.7583 9.37251C19.7583 10.399 19.0271 11.2495 18.0778 11.3888V7.35625C19.0271 7.49556 19.7583 8.34605 19.7583 9.37251ZM15.8771 2.22395C16.5169 2.45857 16.981 3.09645 16.981 3.84429V12.0486C16.981 12.2979 17.1356 12.5179 17.3677 12.5912C17.7685 12.7232 18.0427 13.1118 18.0427 13.5517V18.0534H14.8294V13.5517C14.8294 13.3904 14.8645 13.2291 14.9349 13.0898C15.5536 11.8433 15.8841 10.4503 15.8841 9.07191V2.22395H15.8771ZM14.2458 8.48536C14.1192 8.34605 14.0489 8.16276 14.056 7.97213C14.056 7.7815 14.1333 7.59821 14.2669 7.46623C14.3935 7.33426 14.5692 7.26827 14.745 7.26827C14.752 7.26827 14.7591 7.26827 14.7661 7.26827C14.7731 7.26827 14.7802 7.26827 14.7802 7.26827V8.70532H14.731C14.5411 8.69798 14.3724 8.62466 14.2458 8.48536ZM9.57705 26.6684C9.44346 26.3824 9.11299 26.2651 8.83877 26.4044L6.40596 27.6508C6.3708 27.6728 6.33564 27.6948 6.30752 27.7168L5.33721 28.5307V27.6435C5.33721 27.2109 5.54814 26.815 5.89971 26.5804L13.1067 21.8513C13.1841 21.8 13.2474 21.7267 13.2966 21.646L14.5974 19.1972H17.5646L15.9755 21.6827C15.3145 22.7165 14.3935 23.5597 13.3247 24.1095L12.1856 24.6888C11.9114 24.8281 11.7989 25.1727 11.9325 25.4586C12.0661 25.7445 12.3966 25.8619 12.6708 25.7226L13.8099 25.1433C15.0544 24.5055 16.1231 23.5303 16.8895 22.3279L17.3185 21.6534L21.8114 23.3764V28.67C21.8114 28.8386 21.8395 29.0072 21.8817 29.1612H6.34268L6.94736 28.6553L9.32393 27.4382C9.59814 27.2989 9.71064 26.9543 9.57705 26.6684ZM23.3794 29.1612C23.1192 29.1612 22.9083 28.9412 22.9083 28.67V22.9731C22.9083 22.7312 22.7677 22.5185 22.5497 22.4379L17.9442 20.6709L18.5419 19.7324L18.8161 19.3072L23.0278 20.6709C23.6677 20.8762 24.0966 21.4847 24.0966 22.1886V27.4455C24.0966 27.5409 24.1177 27.6362 24.1669 27.7241L24.9403 29.1685H23.3794V29.1612Z" fill="#493C35"/>
</g>
</g>
</g>
<defs>
<clipPath id="clip0">
<rect width="30" height="30" fill="white"/>
</clipPath>
<clipPath id="clip1">
<rect width="30" height="30" fill="white" transform="translate(0.328613)"/>
</clipPath>
<clipPath id="clip2">
<rect width="28.125" height="29.3274" fill="white" transform="translate(1.26611 0.977539)"/>
</clipPath>
</defs>
</svg>
