<svg height="512" viewBox="0 0 60 60" width="512" xmlns="http://www.w3.org/2000/svg"><g id="Page-1" fill="none" fill-rule="evenodd"><g id="035---Veg-Bowl" fill="rgb(0,0,0)" fill-rule="nonzero" transform="translate(0 -1)"><path id="Shape" d="m40.038 10.056c.1537809-.15132598.3914524-.17699782.574-.062.0972301.0525638.1721717.1385157.211.242.1908144.5183192.7656808.7838143 1.284.593.5183192-.1908144.7838144-.7656808.593-1.284-.2985144-.7941451-.9808356-1.38165011-1.8105066-1.5589164s-1.6925068.08010274-2.2894934.6829164c-.3830095.39792116-.3709211 1.03099052.027 1.414.3979212.3830095 1.0309905.3709211 1.414-.027z"/><path id="Shape" d="m23 49.971c.5522847 0 1-.4477153 1-1s-.4477153-1-1-1c-4.9125472-.0068295-9.5115411-2.4146172-12.316-6.448-.3159069-.4531496-.93935036-.5644069-1.3925-.2485s-.56440688.9393504-.2485 1.3925c3.1789311 4.5694843 8.3905165 7.2968197 13.957 7.304z"/><path id="Shape" d="m2.042 33.829c.44876098 11.2549379 9.6941332 20.1531345 20.958 20.171h5.42c.5522847 0 1-.4477153 1-1s-.4477153-1-1-1h-5.42c-10.0938622-.0166259-18.41423529-7.9202997-18.949-18h5.949c.5522847 0 1-.4477153 1-1s-.4477153-1-1-1h-7c-.55228475 0-1-.4477153-1-1v-1c0-.5522847.44771525-1 1-1h49c.5522847 0 1 .4477153 1 1v.43c0 .5522847.4477153 1 1 1s1-.4477153 1-1v-.43c0-1.6568542-1.3431458-3-3-3h-8.232c1.1634228-.6318395 2.3880482-1.1438033 3.655-1.528 1.5281731.8368403 3.3448422.9673384 4.9769348.3575118 1.6320925-.6098266 2.9180736-1.8996208 3.5230652-3.5335118 1.07632-2.9184617-.2541892-6.1757356-3.066-7.506.3617337-2.6095026-.8968631-5.17734085-3.181-6.49-1.0747951-.6183633-2.3031369-.91868628-3.542-.866-.8853457-1.70772613-2.481616-2.93560477-4.3593095-3.353256-1.8776936-.41765122-3.8439402.01782464-5.3696905 1.189256-.135-.093-.274-.182-.418-.265-2.6930388-1.59051906-6.1561386-.8455394-7.9569173 1.71168663-1.8007787 2.55722602-1.3351171 6.06880887 1.0699173 8.06831337.2396045.1937861.4936787.3689635.76.524.4187104 1.7889397.5796701 3.6285282.478 5.463l-4.312-5.941c-1.5769501-2.1865645-4.277765-3.2616651-6.926-2.757l-1.13-4.883c-.1801372-.77928673-.8072433-1.37631121-1.5944374-1.51795393s-1.5830789.1993378-2.0235626.86695393l-.581.883-2.656-5.323c-.3263409-.64914226-.9790532-1.07024697-1.705-1.1-.73184238-.02304027-1.41948629.34943351-1.8.975l-.683 1.142-2.46-1.37c-.78069831-.43424729-1.75471074-.29808761-2.38639917.33360083-.63168844.63168843-.76784812 1.60570086-.33360083 2.38639917l1.37 2.464-1.143.683c-.62444122.37513444-.99553406 1.06011609-.96870336 1.78808092.02683071.72796488.44734113 1.38377028 1.09770336 1.71191908l5.317 2.66-.888.585c-.66560583.4435974-1.00289202 1.2411157-.85754613 2.0276806.14534588.7865649.74536683 1.4108822 1.52554613 1.5873194l4.874 1.126c-.5050644 2.649293.5709453 5.3512121 2.759 6.928l1.336.97h-13.169c-1.65685425 0-3 1.3431458-3 3v1c.00510553 1.2832852.82589143 2.4212112 2.042 2.831zm27.1-24.755c.3559867-1.18373982 1.2338125-2.13965998 2.383-2.595 1.1333221-.44683617 2.4088326-.35030707 3.462.262.2763157.15989654.5327616.35189535.764.572.3984034.37701858 1.0261491.3627415 1.407-.032 1.0744398-1.10069911 2.6377222-1.5744823 4.1424401-1.25544722 1.504718.31903509 2.7412327 1.38644019 3.2765599 2.82844722.166585.45220206.6319925.72127234 1.107.64 1.5167475-.25506502 3.0584888.28414969 4.0856486 1.4289309 1.0271597 1.1447812 1.3967232 2.7357374.9793514 4.2160691-.1525292.5271441.1482522 1.0787254.674 1.236 1.0631757.3103314 1.9500949 1.0475845 2.449492 2.0361444s.5665664 2.1399312.185508 3.1798556c-.4065616 1.1090747-1.282543 1.9817382-2.3931525 2.3840882s-2.3422668.2932388-3.3648475-.2980882c-.8097653-.4603396-1.429368-1.1937252-1.748-2.069-.1440234-.3944207-.5191067-.6568592-.939-.657-.0826021-.000323-.1649162.0097563-.245.03-.7653934.1985835-1.5781761.0883209-2.263-.307-.8163333-.4678031-1.3635829-1.2938682-1.476-2.228-.0719654-.6293244-.4377965-1.1873556-.9862046-1.5043363s-1.2145557-.3554346-1.7957954-.1036637c-.8655767.3687245-1.8545353.3064279-2.667-.168-.6856813-.3957838-1.1884527-1.0450771-1.4-1.808-.1394643-.493127-.6291453-.8010129-1.134-.713-1.3602332.2303875-2.743179-.2564382-3.6591461-1.2880957-.915967-1.0316574-1.2356509-2.4625105-.8458539-3.7859043zm8.329 9.993c.742122.0299724 1.4817127-.1042193 2.166-.393.0004939.0063237.0004939.0126763 0 .019.0912995.7399218.3472359 1.4499829.749 2.078-.9996283.4563417-1.964244.9857773-2.886 1.584.0753283-1.0951182.065298-2.1944386-.03-3.288zm-5.4-2.937c.3587922.0564072.7218854.0808365 1.085.073.4330876.9225833 1.138395 1.6903597 2.021 2.2.073.042.15.075.225.114.1529988 1.2271498.1884931 2.4661037.106 3.7-.0581476.7666159.3282897 1.4987018.9940583 1.8831927.6657686.384491 1.4929999.3533163 2.1279417-.0801927 1.0323695-.683758 2.1272739-1.2680419 3.27-1.745.066.043.128.09.2.13.8812508.5108823 1.8978805.7394757 2.913.655.1768116.3198891.3826793.6228326.615.905-1.9793938.7316661-3.8385314 1.7545962-5.516 3.035h-5.251l-2.789-3.843c.3910514-2.3260963.3900374-4.7012385-.003-7.027zm-24.431-.105.888-.585c.59455596-.3945886.93383852-1.0760635.89034056-1.7883169s-.46318641-1.3473772-1.10134056-1.6666831l-5.317-2.656 1.15-.685c.92260354-.55928539 1.23797606-1.74789527.714-2.691l-1.371-2.459 2.464 1.372c.94584525.52138356 2.13464303.20210392 2.692-.723l.677-1.143 2.66 5.321c.3208429.63871723.9581616 1.05765754 1.6717424 1.09891691s1.3949374-.3014349 1.7872576-.89891691l.581-.876 1.174 5.064c-.6650672.3352615-1.2726414.7740651-1.8 1.3l-1.38 1.38c-.5259349.5273586-.9647385 1.1349328-1.3 1.8zm8.37 8.388c-1.1849506-.8639103-1.9319102-2.2036064-2.0438808-3.6657662-.1119707-1.4621599.4222904-2.8999705 1.4618808-3.9342338l1.38-1.38c1.7649374-1.7798149 4.574957-1.9777818 6.572-.463l-2.98 2.23c-.2858125.2143594-.4355547.5649147-.3928203.9196152.0427344.3547006.2714531.6596589.6.8.3285469.1403412.7070078.0947442.9928203-.1196152l3.133-2.35 1.291 1.78-2.624 1.97c-.4418278.3313709-.5313708.9581722-.2 1.4.3313709.4418278.9581722.5313708 1.4.2l2.6-1.951 1.293 1.781-2.093 1.57c-.4418278.3313708-.5313708.9581722-.2 1.4s.9581722.5313708 1.4.2l2.068-1.551 2.723 3.751h-12.815z"/><path id="Shape" d="m33.57 33c0-.5522847-.4477153-1-1-1h-16.57c-.5522847 0-1 .4477153-1 1s.4477153 1 1 1h16.57c.5522847 0 1-.4477153 1-1z"/><path id="Shape" d="m52.44 32.993c-.0301426-.0208977-.0615345-.0399332-.094-.057-5.8575801-3.3080154-13.2019714-2.3055628-17.9587671 2.4512329s-5.7592483 12.101187-2.4512329 17.9587671c.0180377.0344721.0380717.0678622.06.1 3.1341841 5.4870908 9.3729661 8.4192061 15.5976111 7.3305965 6.2246449-1.0886096 11.0979799-5.9640899 12.1838497-12.1892133 1.0858698-6.2251235-1.848991-12.4626145-7.3374608-15.5943832zm-7.44 26.007c-7.1797017 0-13-5.8202983-13-13s5.8202983-13 13-13 13 5.8202983 13 13c-.008266 7.1762751-5.8237249 12.991734-13 13z"/><path id="Shape" d="m52.293 39.293-12.293 12.293-3.293-3.293c-.3923789-.3789722-1.0160848-.3735524-1.4018186.0121814s-.3911536 1.0094397-.0121814 1.4018186l4 4c.3904999.3903819 1.0235001.3903819 1.414 0l13-13c.3789722-.3923789.3735524-1.0160848-.0121814-1.4018186s-1.0094397-.3911536-1.4018186-.0121814z"/><circle id="Oval" cx="8" cy="39" r="1"/></g></g></svg>