<svg id="Layer_3" enable-background="new 0 0 64 64" height="512" viewBox="0 0 64 64" width="512" xmlns="http://www.w3.org/2000/svg"><path d="m60.801 23.495-27.801-10.193v-2.402c2.279-.465 4-2.484 4-4.899 0-2.757-2.243-5-5-5s-5 2.243-5 5h2c0-1.654 1.346-3 3-3s3 1.346 3 3-1.346 3-3 3c-.553 0-1 .447-1 1v3.302l-27.801 10.192c-1.315.483-2.199 1.748-2.199 3.15 0 1.85 1.505 3.355 3.355 3.355h10.645v28c0 2.757 2.243 5 5 5h24c2.757 0 5-2.243 5-5v-28h10.645c1.85 0 3.355-1.505 3.355-3.355 0-1.402-.884-2.667-2.199-3.15zm-13.801 27.505h-30v-22c0-1.654 1.346-3 3-3h24c1.654 0 3 1.346 3 3zm-30 2h30v2h-30zm27 8h-24c-1.654 0-3-1.346-3-3v-1h30v1c0 1.654-1.346 3-3 3zm15.645-33h-10.746c-.465-2.279-2.484-4-4.899-4h-24c-2.414 0-4.434 1.721-4.899 4h-10.746c-.747 0-1.355-.608-1.355-1.355 0-.566.357-1.077.889-1.272l28.111-10.308 28.111 10.307c.532.195.889.706.889 1.273 0 .747-.608 1.355-1.355 1.355z" fill="#493c35"/></svg>