<svg height="480pt" viewBox="0 0 480 480" width="480pt" xmlns="http://www.w3.org/2000/svg"><path d="m200 184h80c4.417969 0 8-3.582031 8-8v-96c0-26.507812-21.492188-48-48-48s-48 21.492188-48 48v96c0 4.417969 3.582031 8 8 8zm8-104c0-17.671875 14.328125-32 32-32s32 14.328125 32 32v88h-64zm0 0" fill="#493c35"/><path d="m456 176h-48c-4.417969 0-8-3.582031-8-8s3.582031-8 8-8h16c13.253906 0 24-10.746094 24-24v-64h-16v64c0 4.417969-3.582031 8-8 8h-16c-13.253906 0-24 10.746094-24 24s10.746094 24 24 24h48c4.417969 0 8 3.582031 8 8s-3.582031 8-8 8h-64c-39.746094-.042969-71.957031-32.253906-72-72v-56c0-44.183594-35.816406-80-80-80s-80 35.816406-80 80v56c-.042969 39.746094-32.253906 71.957031-72 72h-64c-4.417969 0-8-3.582031-8-8s3.582031-8 8-8h48c13.253906 0 24-10.746094 24-24s-10.746094-24-24-24h-16c-4.417969 0-8-3.582031-8-8v-64h-16v64c0 13.253906 10.746094 24 24 24h16c4.417969 0 8 3.582031 8 8s-3.582031 8-8 8h-48c-13.253906 0-24 10.746094-24 24s10.746094 24 24 24h56v248c0 4.417969 3.582031 8 8 8h304c4.417969 0 8-3.582031 8-8v-248h56c13.253906 0 24-10.746094 24-24s-10.746094-24-24-24zm-72 288h-288v-240.359375c45.289062-4.191406 79.945312-42.160156 80-87.640625v-56c0-35.347656 28.652344-64 64-64s64 28.652344 64 64v56c.054688 45.480469 34.710938 83.449219 80 87.640625zm0 0" fill="#493c35"/><path d="m304 256h-128c-4.417969 0-8 3.582031-8 8v96c0 13.253906 10.746094 24 24 24h96c13.253906 0 24-10.746094 24-24v-96c0-4.417969-3.582031-8-8-8zm-8 32h-48v-16h48zm-112-16h48v16h-48zm0 88v-56h48v64h-40c-4.417969 0-8-3.582031-8-8zm104 8h-40v-64h48v56c0 4.417969-3.582031 8-8 8zm0 0" fill="#493c35"/></svg>