<svg height="512" viewBox="0 0 61 61" width="512" xmlns="http://www.w3.org/2000/svg"><g id="Page-1" fill="none" fill-rule="evenodd"><g id="001---No-Wheat" fill="rgb(0,0,0)" fill-rule="nonzero"><path id="Shape" d="m30 0c-12.1337409.00016456-23.07264255 7.30942795-27.71600191 18.5195521-4.64335936 11.2101241-2.0767663 24.1135151 6.50300191 32.6934479 7.5675185 7.6340946 18.6411186 10.6359366 29.0281634 7.8689821s18.4998642-10.8797739 21.2668187-21.2668187-.2348875-21.4606449-7.8689821-29.0281634c-5.6134534-5.64487702-13.2521577-8.80903555-21.213-8.787zm19.8 49.8c-10.935238 10.935238-28.664762 10.935238-39.6 0-10.93523805-10.935238-10.93523805-28.664762 0-39.6 10.935238-10.93523805 28.664762-10.93523805 39.6 0 10.935238 10.935238 10.935238 28.664762 0 39.6z"/><path id="Shape" d="m48.7 13.892c-.2827905-.0148421-.5586148.0909087-.759.291l-33.76 33.76c-.2000664.2002587-.3058864.4759273-.2912085.7586191s.1484782.5459188.3682085.7243809c9.9427896 8.0759688 24.3811268 7.3302342 33.4389872-1.7271111 9.0578604-9.0573452 9.8044162-23.49564 1.7290128-33.4388889-.1788726-.2200597-.4427674-.3538246-.726-.368zm-10.718 14.125c-.0486509 1.8485587-.7335066 3.6237441-1.939 5.026-1.4033659 1.1974599-3.1748454 1.8776035-5.019 1.927.0301949-.3992946.0805928-.7968037.151-1.191l5.615-5.615c.442-.076.855-.124 1.192-.147zm-12.782 11.736c.6827916.2812062 1.3066273.6882768 1.839 1.2 1.2001426 1.4050578 1.8827029 3.1788675 1.934 5.026-1.8463457-.0477017-3.6193117-.7327915-5.018-1.939-.5156914-.5304284-.9256598-1.1542048-1.208-1.838zm3.255-.21c-.522656-.5104167-1.1168989-.9419503-1.764-1.281l2.309-2.307v4.233c-.1678203-.225759-.3491519-.4411528-.543-.645zm17.806 6.72c-8.0116884 8.055679-20.7142133 9.030244-29.861 2.291l4.858-4.854c.340815.6452596.773306 1.2377453 1.284 1.759 1.785353 1.5807483 4.0739536 2.4762722 6.458 2.527v2.014c0 .5522847.4477153 1 1 1s1-.4477153 1-1v-2.014c2.3844458-.0519762 4.6735711-.9460883 6.462-2.524 2.768-2.768 2.548-7.319 2.538-7.511-.0282532-.5086423-.4343577-.9147468-.943-.943-.192-.008-4.743-.231-7.512 2.536-.1930948.1960431-.3747294.4030531-.544.62v-3.187c2.3823609-.0512663 4.6697178-.9439626 6.457-2.52 2.775-2.775 2.552-7.321 2.542-7.513-.0285954-.5071733-.4328886-.9123268-.94-.942h-.1l9.6-9.6c6.7381125 9.1481034 5.7609623 21.8510562-2.297 29.861zm-15.238-.284c.0484392-1.8460213.7310321-3.6190677 1.933-5.021 1.4043223-1.1975626 3.1761053-1.8786105 5.021-1.93-.0511747 1.8448159-.7326561 3.6164558-1.931 5.02-1.4037253 1.1986976-3.1758059 1.8802128-5.021 1.931z"/><path id="Shape" d="m30.707 27.167 15.11-15.11c.2000664-.2002587.3058864-.4759273.2912085-.7586191s-.1484782-.5459188-.3682085-.7243809c-9.9431971-8.07130943-24.3778701-7.32336939-33.4336197 1.7323803-9.05574969 9.0557496-9.80368973 23.4904226-1.7323803 33.4336197.1784135.2195565.4414767.3532682.724.368h.052c.2651948-.0000566.5195073-.1054506.707-.293l18.65-18.65zm-3.665-8.214c1.1984846 1.4034604 1.8799859 3.175152 1.931 5.02-1.844848-.0510141-3.6165396-.7325154-5.02-1.931-1.199059-1.4035883-1.8809325-3.175683-1.932-5.021 1.845317.0510675 3.6174117.732941 5.021 1.932zm1.414-1.414c-.1788696-.1766901-.3671433-.3435994-.564-.5-.0418208-.2227407-.0658964-.4484494-.072-.675.1439946-1.8401128.913267-3.5755631 2.18-4.918 1.2659029 1.3413912 2.0351139 3.0752916 2.18 4.914-.0055101.2366665-.0305957.4724712-.075.705-.195332.1496826-.3829086.3092229-.562.478-.6459943.6590226-1.1685957 1.4285304-1.543 2.272-.3740986-.8450723-.8970844-1.6160021-1.544-2.276zm9.518-.467-6.893 6.892-.054.005c.0299144-.4224907.082322-.843087.157-1.26.2087576-1.3979348.8255306-2.7031419 1.773-3.752.2064223-.2072593.4295042-.3972301.667-.568 1.3084416-.8250768 2.8087661-1.296125 4.354-1.367zm-26.528 26.528c-6.72869318-9.1547493-5.76466247-21.8510089 2.2691643-29.8848357 8.0338268-8.03382677 20.7300864-8.99785748 29.8848357-2.2691643l-3.874 3.873c-.1743999-.1885594-.4146662-.3027844-.671-.319-1.6734238-.0453059-3.3391255.2429625-4.9.848-.272-3.663-3.348-6.471-3.486-6.594-.3797036-.33992305-.9542964-.33992305-1.334 0-.138.123-3.216 2.932-3.487 6.6-1.5603658-.6072316-3.2262448-.8968906-4.9-.852-.5086423.0282532-.9147468.4343577-.943.943-.01.193-.231 4.744 2.538 7.512 1.7872661 1.5764517 4.0744122 2.4701282 6.457 2.523v.065l-1.623 1.623c-1.9373779-1.1676677-4.1723333-1.7471649-6.433-1.668-.5086423.0282532-.9147468.4343577-.943.943-.0774926 2.2604828.5018833 4.4949702 1.668 6.433zm11.676-11.676c-.6475635-1.2056672-1.0230375-2.5386001-1.1-3.905 1.3652457.0743743 2.6971029.4500263 3.9 1.1z"/><path id="Shape" d="m12.692 18.1c-4.35619145 6.2929764-4.92618276 14.4631076-1.486 21.3.1592459.3217112.478709.5333868.8370472.5546256s.700569-.1512179.8967023-.4518657c.1961333-.3006477.216075-.6833559.0522505-1.0027599-3.11156427-6.1846139-2.5952621-13.5750993 1.346-19.267.220696-.2935369.2627379-.6844264.1095097-1.0181805s-.4770689-.5566651-.8435333-.5806338-.7165811.154862-.9119764.4658143z"/><circle id="Oval" cx="16" cy="16" r="1"/></g></g></svg>