<svg width="30" height="30" viewBox="0 0 30 30" fill="none" xmlns="http://www.w3.org/2000/svg">
<g clip-path="url(#clip0)">
<mask id="mask0" mask-type="alpha" maskUnits="userSpaceOnUse" x="0" y="0" width="31" height="32">
<rect x="0.000488281" width="30" height="31.2826" fill="white"/>
</mask>
<g mask="url(#mask0)">
</g>
<g clip-path="url(#clip1)">
<path d="M18.9981 7.06206C19.1556 7.06206 19.3056 6.9995 19.4106 6.88219C19.5231 6.76488 19.5831 6.60846 19.5831 6.45205C19.5831 6.28782 19.5231 6.13141 19.4106 6.02192C19.2981 5.90461 19.1481 5.84204 18.9981 5.84204C18.8406 5.84204 18.6906 5.90461 18.5856 6.02192C18.4731 6.13923 18.4131 6.29564 18.4131 6.45205C18.4131 6.61629 18.4731 6.7727 18.5856 6.88219C18.6981 6.9995 18.8481 7.06206 18.9981 7.06206Z" fill="#493C35"/>
<path d="M29.7675 20.4353C29.2275 20.013 28.665 19.6532 28.08 19.3482C29.3175 16.83 29.715 13.8347 29.22 10.636C29.1825 10.378 28.9875 10.1746 28.7325 10.1277C26.595 9.76794 24.555 9.86179 22.665 10.3936C22.2375 10.5187 21.825 10.6595 21.42 10.8237C21.27 10.0886 21.0525 9.36127 20.775 8.65741C20.655 8.34459 20.31 8.19599 20.01 8.32112C19.71 8.44626 19.5675 8.806 19.6875 9.11883C19.9725 9.84615 20.1825 10.5891 20.3175 11.3477C19.305 11.8952 18.39 12.5912 17.58 13.4358C16.4325 14.6324 15.5625 16.0636 14.9925 17.6824C14.4225 16.0636 13.545 14.6246 12.405 13.4358C11.595 12.5912 10.68 11.8952 9.66746 11.3477C10.26 8.16471 12.1275 5.20851 14.9925 2.94052C15.69 3.49579 16.3425 4.09798 16.92 4.73145C17.145 4.97389 17.5125 4.98171 17.745 4.75491C17.9775 4.52029 17.985 4.13708 17.7675 3.89464C17.055 3.08911 16.23 2.34615 15.345 1.6814C15.1425 1.52498 14.865 1.52498 14.6625 1.6814C11.4525 4.09798 9.31496 7.32008 8.58746 10.8237C8.18996 10.6595 7.76996 10.5187 7.34246 10.3936C5.45246 9.85397 3.40496 9.76794 1.27496 10.1277C1.01996 10.1668 0.82496 10.3701 0.77996 10.636C0.28496 13.8347 0.67496 16.83 1.91996 19.3482C1.34246 19.6532 0.77246 20.013 0.23246 20.4353C0.01496 20.6074 -0.06004 20.9045 0.04496 21.1704C1.34246 24.3065 3.74996 26.5667 6.65246 27.38C7.43996 27.599 8.24996 27.7085 9.05996 27.7085C11.1075 27.7085 13.17 27.0203 15 25.7064C16.83 27.0203 18.8925 27.7085 20.94 27.7085C21.75 27.7085 22.56 27.599 23.3475 27.38C26.25 26.5667 28.6575 24.3065 29.955 21.1704C30.06 20.9045 29.985 20.6074 29.7675 20.4353ZM18.4125 14.2883C20.775 11.8248 24.2925 10.7377 28.1175 11.2695C28.4775 14.0693 28.095 16.6736 27 18.8555C25.065 18.0969 23.0025 17.9562 21.06 18.5036C18.75 19.1449 16.7625 20.709 15.39 22.8988C15.36 21.9682 15.4125 21.0766 15.555 20.2163C15.57 20.1616 15.5775 20.1068 15.585 20.0521C15.975 17.8076 16.935 15.8368 18.4125 14.2883ZM1.87496 11.2695C5.69996 10.7377 9.22496 11.8326 11.58 14.2883C13.0275 15.7977 14.0025 17.7841 14.4 20.0208C14.28 20.7638 14.22 21.5302 14.2125 22.3123C12.8625 20.4275 11.025 19.0823 8.93246 18.4958C6.98996 17.9562 4.93496 18.0891 2.99246 18.8477C1.90496 16.6658 1.52246 14.0693 1.87496 11.2695ZM6.95246 26.1991C4.53746 25.5265 2.50496 23.6887 1.31996 21.1313C3.57746 19.5359 6.21746 19.0041 8.63246 19.6845C11.0475 20.3571 13.08 22.1949 14.265 24.7523C12.0075 26.3477 9.37496 26.8717 6.95246 26.1991ZM23.0475 26.1991C20.6325 26.8717 17.9925 26.3477 15.735 24.7523C16.92 22.1949 18.9525 20.3571 21.3675 19.6845C23.7825 19.0119 26.4225 19.5359 28.68 21.1313C27.495 23.6887 25.4625 25.5265 23.0475 26.1991Z" fill="#493C35"/>
</g>
</g>
<defs>
<clipPath id="clip0">
<rect width="30" height="30" fill="white" transform="translate(0.000488281)"/>
</clipPath>
<clipPath id="clip1">
<rect width="30" height="26.1444" fill="white" transform="translate(0.000488281 1.56409)"/>
</clipPath>
</defs>
</svg>
