<svg width="30" height="30" viewBox="0 0 30 30" fill="none" xmlns="http://www.w3.org/2000/svg">
<g clip-path="url(#clip0)">
<mask id="mask0" mask-type="alpha" maskUnits="userSpaceOnUse" x="0" y="0" width="30" height="32">
<rect width="30" height="31.2826" fill="white"/>
</mask>
<g mask="url(#mask0)">
</g>
<g clip-path="url(#clip1)">
<path d="M18.8101 8.78496C18.5476 8.97246 18.4801 9.33246 18.6676 9.60246C18.8551 9.86496 19.2151 9.93246 19.4851 9.74496C19.7476 9.55746 19.8151 9.19746 19.6276 8.92746C19.4401 8.66496 19.0726 8.60496 18.8101 8.78496Z" fill="#493C35"/>
<path d="M24.1652 4.72749L20.6327 7.45749C20.3777 7.65249 20.3327 8.01999 20.5277 8.28249C20.7227 8.53749 21.0977 8.58249 21.3527 8.38749L24.8852 5.65749C25.1402 5.46249 25.1852 5.09499 24.9902 4.83249C24.7877 4.57749 24.4202 4.53249 24.1652 4.72749Z" fill="#493C35"/>
<path d="M28.6046 4.83217C29.9021 3.23467 30.2771 2.17717 29.7971 1.49467C29.2796 0.752166 28.0871 0.842166 25.9271 1.77217C24.3671 2.44717 22.3871 3.54217 20.3246 4.86967C15.4646 1.56967 9.95214 0.857166 5.84214 3.01717C2.00964 5.03467 -0.0678585 9.21217 -0.000358508 14.7697C0.0446415 18.5422 1.15464 21.0847 2.07714 22.5547C3.24714 24.4072 4.77714 25.6147 6.26964 25.8697C7.78464 26.1247 8.96214 25.3447 9.48714 23.9047C9.94464 22.6447 9.62214 20.9947 11.3471 20.3047C12.3671 19.8997 13.4546 20.3872 13.9496 21.4522C15.4571 24.7447 16.0646 27.7672 19.7171 29.0497C22.9796 30.1972 25.8146 29.1547 27.5396 26.5372C30.2396 22.4572 29.9696 14.7922 24.6896 8.69467C26.2796 7.36717 27.6521 6.00967 28.6046 4.83217ZM26.5721 25.8922C25.0796 28.1497 22.7846 28.8847 20.1146 27.9472C17.0171 26.8597 16.5071 24.1972 15.0221 20.9722C14.2721 19.3447 12.5096 18.5872 10.9196 19.2247C8.51964 20.1772 8.76714 22.4572 8.38464 23.5147C8.04714 24.4597 7.37964 24.8797 6.46464 24.7222C4.37214 24.3697 1.23714 20.9647 1.16214 14.7697C1.10964 9.65467 2.96214 5.85967 6.38964 4.05217C9.99714 2.15467 14.8646 2.73967 19.2671 5.55967C18.9596 5.76967 18.6521 5.97967 18.3521 6.18967C17.0096 7.12717 15.7646 8.10217 14.6546 9.06967C13.4021 10.1722 12.3896 11.2072 11.7146 12.0997C10.3196 11.7022 8.85714 12.3847 8.25714 13.6747L7.62714 15.0247C7.27464 14.8822 6.89964 14.8072 6.50964 14.8072C4.89714 14.8072 3.57714 16.1197 3.57714 17.7397C3.57714 19.3522 4.88964 20.6722 6.50964 20.6722C8.03964 20.6722 9.29964 19.4947 9.42714 17.9947L11.1671 17.8447C12.5321 17.7247 13.6721 16.6597 13.8221 15.2422C14.8721 14.9197 16.1696 14.3497 17.6171 13.5622C17.6846 13.5472 17.7521 13.5172 17.8121 13.4722C17.8346 13.4572 17.8496 13.4422 17.8721 13.4197C19.1246 12.7222 20.4146 11.9122 21.7196 10.9972C22.4246 10.5022 23.1296 9.97717 23.8046 9.43717C28.6496 15.0397 29.0471 22.1422 26.5721 25.8922ZM13.6871 14.0497C13.5971 13.7647 13.4621 13.4947 13.2896 13.2472C13.1396 13.0297 12.9521 12.8347 12.7496 12.6622C13.2821 11.9872 14.0171 11.2222 14.9246 10.3972L16.5821 12.7672C15.5021 13.3372 14.5121 13.7722 13.6871 14.0497ZM6.57714 17.9497C6.68964 18.1072 6.86964 18.1972 7.05714 18.1972C7.07214 18.1972 7.09464 18.1972 7.10964 18.1972L8.21964 18.0997C8.05464 18.9022 7.34214 19.5022 6.49464 19.5022C5.52714 19.5022 4.73964 18.7147 4.73964 17.7472C4.73964 16.7797 5.52714 15.9922 6.49464 15.9922C6.71214 15.9922 6.92214 16.0297 7.11714 16.1047L6.52464 17.3647C6.43464 17.5522 6.45714 17.7772 6.57714 17.9497ZM8.01714 16.9447C8.19714 16.5622 9.14214 14.5372 9.30714 14.1847C9.87714 12.9622 11.5646 12.8122 12.3371 13.9222C13.1246 15.0472 12.3821 16.5697 11.0546 16.6822L8.01714 16.9447ZM21.0371 10.0372C19.8821 10.8472 18.7346 11.5747 17.6246 12.2047L15.8171 9.61717C16.7921 8.78467 17.8721 7.95967 19.0196 7.14967C21.0896 5.70217 23.7896 4.01467 26.0771 2.97967C27.9821 2.11717 28.6496 2.14717 28.8221 2.17717C28.8071 2.39467 28.5596 3.05467 27.5171 4.30717C25.8146 6.33967 23.2346 8.49217 21.0371 10.0372Z" fill="#493C35"/>
<path d="M21.7279 20.0875C20.1154 20.0875 18.7954 21.4 18.7954 23.02C18.7954 24.64 20.1079 25.9525 21.7279 25.9525C23.3479 25.9525 24.6604 24.64 24.6604 23.02C24.6604 21.4 23.3404 20.0875 21.7279 20.0875ZM21.7279 24.775C20.7604 24.775 19.9729 23.9875 19.9729 23.02C19.9729 22.0525 20.7604 21.265 21.7279 21.265C22.6954 21.265 23.4829 22.0525 23.4829 23.02C23.4829 23.9875 22.6954 24.775 21.7279 24.775Z" fill="#493C35"/>
<path d="M22.8978 13.0601C21.2853 13.0601 19.9653 14.3726 19.9653 15.9926C19.9653 17.6051 21.2778 18.9251 22.8978 18.9251C24.5178 18.9251 25.8303 17.6126 25.8303 15.9926C25.8303 14.3726 24.5178 13.0601 22.8978 13.0601ZM22.8978 17.7476C21.9303 17.7476 21.1428 16.9601 21.1428 15.9926C21.1428 15.0251 21.9303 14.2376 22.8978 14.2376C23.8653 14.2376 24.6528 15.0251 24.6528 15.9926C24.6603 16.9601 23.8728 17.7476 22.8978 17.7476Z" fill="#493C35"/>
<path d="M8.2502 11.2974C9.8627 11.2974 11.1827 9.98494 11.1827 8.36494C11.1827 6.74494 9.87019 5.43994 8.2502 5.43994C6.6302 5.43994 5.3252 6.75244 5.3252 8.37244C5.3252 9.99244 6.6377 11.2974 8.2502 11.2974ZM8.2502 6.60994C9.21769 6.60994 10.0052 7.39744 10.0052 8.36494C10.0052 9.33244 9.21769 10.1199 8.2502 10.1199C7.2827 10.1199 6.4952 9.33244 6.4952 8.36494C6.4952 7.40494 7.2827 6.60994 8.2502 6.60994Z" fill="#493C35"/>
</g>
</g>
<defs>
<clipPath id="clip0">
<rect width="30" height="30" fill="white"/>
</clipPath>
<clipPath id="clip1">
<rect width="30" height="28.5075" fill="white" transform="translate(0 1)"/>
</clipPath>
</defs>
</svg>
