<svg xmlns="http://www.w3.org/2000/svg" viewBox="0 0 238.49 91.83"><g id="Слой_2" data-name="Слой 2"><g id="Слой_1-2" data-name="Слой 1"><path d="M7.74,68.41S-6.93,47.28,4.12,26.53,42.2-6,61,3.13s42.46,40.4,28.27,63.69S58.52,94.6,42,90.45,9.82,72,7.74,68.41Z" style="fill:#dcac6c;fill-rule:evenodd"/><path d="M44.62,7.28C51.84,14.37,65.48,20.74,65,34.82c-.24,6.65-4.71,9.47-7.67,13.89,12.94-1.92,16.12,9.62,18.92,19.4-11.31.74-24.42-.79-27.54-9.82-5.14,4.2-9.14,11.84-20.12,10.78-5.28-.51-5-3.36-11.31-6.19-2-.87-3.48-.66-4.67-1,2.69-8.14,14.52-16.39,24.84-12,3.46,1.48,5.83,4.92,9.82,5.75-2.18-3.13-5.36-6-7.9-9.58-2.31-3.29-5.17-7.48-5.75-12C32,21.29,43.17,18,44.62,7.28Zm9.87,11.11c-.23-1.86-6.94-6.72-9-7.68-1,3.06-3.83,4.74-3.95,8.07-.08,2.4,2.21,4.48,3.72,6.56a26.82,26.82,0,0,1,3.84,7.56C48.48,27.53,55,22.62,54.49,18.39Zm-14.37.94c-.24,0-4.9,6.09-4.65,9.55.35,5,7.49,5.89,12.27,7.14C47.44,28.57,42,25.16,40.12,19.32ZM51.06,38.59c1.7-.75,3.5-4.22,5.3-6.16s4-3.79,3.83-6.23c-.24-2.71-2.58-4.62-4.2-6.59C54.55,25,48.58,32.1,51.06,38.59Zm.27,5.81c2.4-1.88,5.56,0,7.66-2.16a11.71,11.71,0,0,0,1.44-2.87c1.4-3.22,2.53-7.32.48-11.26C57.78,33.47,51.67,37.06,51.33,44.4ZM39.11,40.33c1.61,1.13,3.4.44,5.75,1,1.24.27,2.53,1.78,4.07,1.68-.27-1.81-.54-3.61-1-5.27a56.34,56.34,0,0,1-12.21-5.27C36.71,36.21,36.85,38.73,39.11,40.33ZM47.9,53.1c-.14-2.6,1.4-4.24,1.28-6.3-.25-4.06-5.24-4.66-9.82-5C41.35,46.08,43.47,51.22,47.9,53.1Zm9.18-8.7c-4.64-.86-7.85,3.7-7.46,9.33C52.42,51.26,55.67,48.26,57.07,44.4ZM34.17,55.7c-1.93-2-9.23-6.93-11.82-1.72,2.6.35,4.07,3.94,6.95,4.55,3.25.69,6.59-.28,10.06,0C37.49,58.24,35.25,56.59,34.17,55.7Zm17.88,0c5.56,4.43,9.69-2.47,14.51-3C64.09,49.37,52.54,51,52,55.65ZM29.53,51.48a17.32,17.32,0,0,1,3.1,2c1.84,2.23,7.44,6,10.07,2.66C39.28,54.16,35.15,49,29.53,51.48ZM59,57.57c1.57,3.63,8.57.71,12,2.16-.61-2-1-4.33-2.4-5.51C64.09,53.13,61.85,56.25,59,57.57ZM27.91,59c-2.87-1.28-3.77-3.9-7.48-4.34A10.63,10.63,0,0,0,14.8,61c3.83,2.11,13.63,1.45,16.41-1.76A12.16,12.16,0,0,1,27.91,59ZM36,61.4c-1.43,1-1,2.7-1.92,4.07s-2.39,1.14-3.35,2.39c6.67-1,12.49-4.11,14.13-9.34C42.7,61.24,38.5,59.72,36,61.4Zm15.33-2.63c.84,3.15,3.28,4.7,6.23,5.75C58.5,60.67,54.9,58.09,51.33,58.77Zm14.13,7.9c-1.75-3-3.38-6-7.18-6.95C58.13,64.42,61.17,67.94,65.46,66.67Zm6.23-5.51c-1.95-1-6.15-1.48-8.26-.28,1.26,3.87,5.87,8.13,10.65,5.55A13.4,13.4,0,0,0,71.69,61.16ZM22.35,63.8c1.52,3.52,8.2,4.62,10.78,1.2,1-1.39.53-3.09,1.92-4.31C30.05,61,26.64,62.82,22.35,63.8Z" style="fill:#fff;fill-rule:evenodd"/><path d="M32.41,43.92c-4.53-3.15-5.86,1.3-10.3-3.83,1.85-1.05,4.11-2.83,6.23-2.4C30.9,38.21,31.22,41.82,32.41,43.92Z" style="fill:#fff;fill-rule:evenodd"/><path d="M75,40.09C73.55,43.4,69.8,45.69,65,44.88,67.65,43,70.71,37.27,75,40.09Z" style="fill:#fff;fill-rule:evenodd"/><path d="M47.5,64.75c4.18,5.41,2.1,6-1.44,9.34C43.36,67.75,45.2,67.08,47.5,64.75Z" style="fill:#fff;fill-rule:evenodd"/><path d="M113.41,45.69H116V50a6.71,6.71,0,0,1-2,1,8.09,8.09,0,0,1-2.3.34,6.16,6.16,0,0,1-2.92-.69,5.11,5.11,0,0,1-2-1.91,5.58,5.58,0,0,1,0-5.55,5.11,5.11,0,0,1,2-1.91,6.31,6.31,0,0,1,3-.69,6.57,6.57,0,0,1,2.6.49,5,5,0,0,1,1.92,1.4l-1.86,1.68A3.27,3.27,0,0,0,111.86,43a2.78,2.78,0,0,0-3,2.95,3.12,3.12,0,0,0,.37,1.53,2.63,2.63,0,0,0,1,1,3,3,0,0,0,1.52.38,3.72,3.72,0,0,0,1.58-.34Z" style="fill:#dcac6c"/><path d="M120.51,50a4.76,4.76,0,0,1-1.28-3.55V40.75h2.92v5.63q0,2.48,2,2.48t1.95-2.48V40.75h2.88v5.72A4.76,4.76,0,0,1,127.66,50a5.73,5.73,0,0,1-7.15,0Z" style="fill:#dcac6c"/><path d="M136.9,48.33h-1.59v2.74h-2.92V40.75h4.72a5.87,5.87,0,0,1,2.43.46,3.76,3.76,0,0,1,1.63,5.31,3.54,3.54,0,0,1-1.5,1.3l2.23,3.24h-3.13Zm1.39-4.88a2,2,0,0,0-1.36-.4h-1.62v3h1.62a2,2,0,0,0,1.36-.39,1.38,1.38,0,0,0,.46-1.11A1.41,1.41,0,0,0,138.29,43.45Z" style="fill:#dcac6c"/><path d="M146,50a4.76,4.76,0,0,1-1.28-3.55V40.75h2.92v5.63q0,2.48,2,2.48t1.95-2.48V40.75h2.88v5.72A4.76,4.76,0,0,1,153.12,50,5.73,5.73,0,0,1,146,50Z" style="fill:#dcac6c"/><path d="M160.77,43v2.27h4.56v2.26h-4.56v3.54h-2.92V40.75h8.1V43Z" style="fill:#dcac6c"/><path d="M171,50.59a5.28,5.28,0,0,1,0-9.35,6.59,6.59,0,0,1,5.88,0,5.28,5.28,0,0,1,0,9.35,6.59,6.59,0,0,1-5.88,0Zm4.36-2.09a2.67,2.67,0,0,0,1-1,3.41,3.41,0,0,0,0-3.08,2.66,2.66,0,0,0-1-1,2.9,2.9,0,0,0-2.83,0,2.65,2.65,0,0,0-1,1,3.4,3.4,0,0,0,0,3.08,2.65,2.65,0,0,0,1,1,2.91,2.91,0,0,0,2.83,0Z" style="fill:#dcac6c"/><path d="M187.17,48.33h-1.59v2.74h-2.92V40.75h4.72a5.88,5.88,0,0,1,2.43.46,3.76,3.76,0,0,1,1.63,5.31,3.54,3.54,0,0,1-1.5,1.3l2.23,3.24H189Zm1.39-4.88a2,2,0,0,0-1.36-.4h-1.62v3h1.62a2,2,0,0,0,1.36-.39,1.38,1.38,0,0,0,.46-1.11A1.41,1.41,0,0,0,188.55,43.45Z" style="fill:#dcac6c"/><path d="M194.89,50.74a1.6,1.6,0,0,1-.49-1.2,1.57,1.57,0,0,1,.48-1.2,1.82,1.82,0,0,1,2.41,0,1.59,1.59,0,0,1,.47,1.2,1.61,1.61,0,0,1-.48,1.2,1.76,1.76,0,0,1-2.4,0Z" style="fill:#dcac6c"/><path d="M202.63,50.6a5.12,5.12,0,0,1-2-1.91,5.58,5.58,0,0,1,0-5.55,5.15,5.15,0,0,1,2-1.91,6.11,6.11,0,0,1,2.91-.69,6.26,6.26,0,0,1,2.55.5A4.91,4.91,0,0,1,210,42.49l-1.86,1.68A3.05,3.05,0,0,0,205.69,43a3,3,0,0,0-1.5.37,2.56,2.56,0,0,0-1,1,3.47,3.47,0,0,0,0,3.08,2.57,2.57,0,0,0,1,1,3,3,0,0,0,1.5.37,3.05,3.05,0,0,0,2.43-1.21L210,49.34a4.91,4.91,0,0,1-1.89,1.45,6.26,6.26,0,0,1-2.55.5A6.11,6.11,0,0,1,202.63,50.6Z" style="fill:#dcac6c"/><path d="M214.8,50.59a5.28,5.28,0,0,1,0-9.35,6.59,6.59,0,0,1,5.88,0,5.28,5.28,0,0,1,0,9.35,6.59,6.59,0,0,1-5.88,0Zm4.36-2.09a2.67,2.67,0,0,0,1-1,3.41,3.41,0,0,0,0-3.08,2.66,2.66,0,0,0-1-1,2.9,2.9,0,0,0-2.83,0,2.65,2.65,0,0,0-1,1,3.4,3.4,0,0,0,0,3.08,2.65,2.65,0,0,0,1,1,2.91,2.91,0,0,0,2.83,0Z" style="fill:#dcac6c"/><path d="M235.81,51.08l0-5.47-2.65,4.45h-1.3l-2.64-4.31v5.32h-2.7V40.75h2.4l3.63,6,3.54-6h2.4l0,10.32Z" style="fill:#dcac6c"/></g></g></svg>