<svg width="30" height="30" viewBox="0 0 30 30" fill="none" xmlns="http://www.w3.org/2000/svg">
<g clip-path="url(#clip0)">
<mask id="mask0" mask-type="alpha" maskUnits="userSpaceOnUse" x="0" y="0" width="30" height="32">
<rect width="30" height="31.2826" fill="white"/>
</mask>
<g mask="url(#mask0)">
</g>
<g clip-path="url(#clip1)">
<path d="M26.2213 23.0166L23.5072 22.3201C23.4229 15.9047 23.3174 15.6335 21.5104 11.1317L21.3557 10.7358C21.3557 10.7285 21.3486 10.7285 21.3486 10.7211L17.6502 2.14285C17.165 1.00641 16.0119 0.779125 15.1752 1.13105C14.9502 1.22637 14.7322 1.37301 14.5494 1.56363C14.3666 1.37301 14.1557 1.22637 13.9236 1.13105C13.0869 0.771793 11.9408 1.00641 11.4486 2.14285L10.401 4.57703C10.2744 4.86297 10.401 5.20757 10.6752 5.33221C10.9494 5.46418 11.2799 5.33221 11.3994 5.04627L12.4471 2.61209C12.6791 2.07686 13.2064 2.06953 13.5018 2.19417C13.6916 2.27482 14.1064 2.53877 13.8604 3.20597L12.0182 8.36026C11.2869 8.46291 10.6822 9.05679 10.4713 9.92195C10.1689 11.1684 9.89473 12.3635 9.62754 13.5219C9.49395 14.1084 9.36035 14.695 9.21973 15.2889C9.14941 15.5968 9.33223 15.9047 9.62051 15.9781C9.91582 16.0514 10.2111 15.8608 10.2814 15.5601C10.4221 14.9663 10.5557 14.3724 10.6893 13.7858C10.9564 12.6347 11.2307 11.4396 11.533 10.2006C11.6314 9.81197 11.9127 9.43805 12.3275 9.48937H12.3416C12.5244 9.5187 12.6861 9.61401 12.8057 9.76798C12.9252 9.92195 12.9744 10.1199 12.9533 10.3105C12.9111 10.6551 12.8408 11.337 12.7705 11.9895C12.7002 12.6421 12.6299 13.3166 12.5947 13.6539C12.3768 15.4722 12.44 15.6921 13.0096 16.8506C13.1221 17.0778 13.2486 17.3271 13.3963 17.6571C14.0783 19.1161 13.9658 21.0957 13.0447 23.9038C12.1025 26.7706 7.58145 28.5522 3.55254 29.0801V24.0138L6.25957 23.3172C6.51973 23.2659 6.68848 23.0386 6.69551 22.782C6.77988 16.154 6.81504 16.0734 8.61504 11.5789L8.76973 11.1904L9.61348 9.22542C9.74004 8.93948 9.61348 8.59488 9.33926 8.47024C9.06504 8.33827 8.73457 8.47024 8.61504 8.75618L7.75723 10.7285C7.75723 10.7358 7.7502 10.7358 7.7502 10.7431L7.59551 11.139C5.78848 15.6408 5.68301 15.9121 5.59863 22.3274L2.88457 23.024C2.64551 23.0826 2.46973 23.3099 2.46973 23.5739V29.7326C2.46973 29.8939 2.53301 30.0479 2.65254 30.1579C2.75098 30.2532 2.88457 30.3045 3.01816 30.3045C3.03926 30.3045 3.05332 30.3045 3.07441 30.3045C7.73613 29.8353 12.9463 27.797 14.0994 24.2851C14.2822 23.7352 14.4299 23.2073 14.5564 22.7087C14.676 23.2073 14.8307 23.7352 15.0135 24.2851C15.4424 25.5828 16.4408 26.7486 17.9877 27.7384C18.2479 27.907 18.5854 27.819 18.7471 27.5477C18.9088 27.2765 18.8244 26.9245 18.5643 26.7632C17.2635 25.9274 16.3916 24.9376 16.0541 23.9111C15.133 21.103 15.0205 19.1161 15.7025 17.6571C15.8502 17.3345 15.9768 17.0778 16.0893 16.8506C16.6588 15.6921 16.7221 15.4722 16.5041 13.6539C16.4619 13.3166 16.3916 12.6421 16.3283 11.9969C16.258 11.337 16.1877 10.6625 16.1455 10.3179C16.0963 9.91462 16.3705 9.54802 16.7502 9.4967C16.7572 9.4967 16.7572 9.4967 16.7643 9.4967C17.1791 9.44538 17.4604 9.8193 17.5588 10.2079C17.8611 11.4396 18.1354 12.6347 18.4025 13.7858C18.5361 14.3724 18.6697 14.9663 18.8104 15.5601C18.8807 15.8681 19.176 16.0587 19.4713 15.9781C19.7666 15.9047 19.9494 15.5968 19.8721 15.2889C19.7314 14.695 19.5979 14.1084 19.4643 13.5146C19.1971 12.3561 18.9229 11.161 18.6205 9.91462C18.4096 9.04946 17.8049 8.45558 17.0736 8.35293L15.2314 3.19864C14.9924 2.52411 15.4072 2.26749 15.59 2.18684C15.9486 2.03287 16.4268 2.09886 16.6447 2.60476L20.3432 11.183L20.4979 11.5716C22.2979 16.0587 22.333 16.1467 22.4174 22.7747C22.4174 23.0386 22.5932 23.2586 22.8322 23.3246L25.5393 24.0211V29.0874C24.4916 28.9554 23.465 28.7428 22.4736 28.4569C22.1783 28.3762 21.876 28.5522 21.7986 28.8601C21.7213 29.1681 21.89 29.4833 22.1854 29.564C23.4229 29.9159 24.7166 30.1652 26.0314 30.2972C26.0525 30.2972 26.0666 30.2972 26.0877 30.2972C26.2213 30.2972 26.3549 30.2459 26.4604 30.1505C26.5729 30.0406 26.6432 29.8866 26.6432 29.7253V23.5665C26.6432 23.3099 26.4674 23.0826 26.2213 23.0166ZM15.9768 8.58022C15.3439 8.93948 14.9572 9.68 15.0557 10.4645C15.0979 10.8018 15.1682 11.4763 15.2314 12.1288C15.3018 12.7814 15.3721 13.4632 15.4143 13.8078C15.5971 15.3475 15.5971 15.3475 15.1119 16.3373C15.0064 16.5573 14.8729 16.8286 14.7182 17.1658C14.6619 17.2905 14.6057 17.4151 14.5635 17.5397C14.5143 17.4151 14.465 17.2905 14.4088 17.1732C14.2541 16.8359 14.1205 16.5646 14.008 16.3447C13.5229 15.3549 13.5229 15.3549 13.7057 13.8152C13.7479 13.4706 13.8182 12.7887 13.8885 12.1362C13.9588 11.4836 14.0291 10.8091 14.0643 10.4718C14.1205 9.97327 13.9939 9.48204 13.6986 9.08612C13.5439 8.88083 13.3541 8.71219 13.1432 8.58755L14.5635 4.60635L15.9768 8.58022Z" fill="#493C35"/>
<path d="M9.79612 7.42956C9.86643 7.45889 9.93675 7.47355 10.0141 7.47355C10.225 7.47355 10.4289 7.34158 10.5203 7.12896C10.6399 6.83568 10.5133 6.49842 10.2321 6.37378C9.95081 6.24913 9.62737 6.38111 9.50784 6.67438C9.38831 6.96766 9.51487 7.30492 9.79612 7.42956Z" fill="#493C35"/>
<path d="M20.4625 27.7609C20.1813 27.6362 19.8578 27.7682 19.7383 28.0615C19.6188 28.3547 19.7453 28.692 20.0266 28.8167C20.0969 28.846 20.1672 28.8606 20.2446 28.8606C20.4555 28.8606 20.6594 28.7287 20.7508 28.516C20.8703 28.2228 20.7438 27.8855 20.4625 27.7609Z" fill="#493C35"/>
</g>
</g>
<defs>
<clipPath id="clip0">
<rect width="30" height="30" fill="white"/>
</clipPath>
<clipPath id="clip1">
<rect width="24.1734" height="29.3274" fill="white" transform="translate(2.46973 0.977539)"/>
</clipPath>
</defs>
</svg>
