<svg height="512" viewBox="0 0 64 64" width="512" xmlns="http://www.w3.org/2000/svg"><path d="m49 2h-9a4 4 0 0 0 -4 4v9h-19a1 1 0 0 0 -1 1.044l1.83 41.178a4.991 4.991 0 0 0 5 4.778h18.344a4.991 4.991 0 0 0 4.995-4.778l1.831-41.178a1 1 0 0 0 -1-1.044h-5v-7h7a1 1 0 0 0 1-1v-4a1 1 0 0 0 -1-1zm-13 15v6.294a9.821 9.821 0 0 0 -2.5-.294 9.185 9.185 0 0 0 -4.566 1.1 7.194 7.194 0 0 1 -3.684.9 7.225 7.225 0 0 1 -3.693-.9 9.27 9.27 0 0 0 -3.241-1.02l-.27-6.08zm2 9.278a8.455 8.455 0 0 0 2 .588v27.134h-2zm2-1.444a8.142 8.142 0 0 1 -1.923-.723l-.077-.036v-7.075h2zm4.171 32.3a2.994 2.994 0 0 1 -3 2.867h-18.345a2.994 2.994 0 0 1 -3-2.867l-1.42-32.028a7.552 7.552 0 0 1 2.281.795 9.191 9.191 0 0 0 4.563 1.099 9.177 9.177 0 0 0 4.556-1.1 7.193 7.193 0 0 1 3.694-.9 7.112 7.112 0 0 1 2.5.383v29.617a1 1 0 0 0 1 1h4a1 1 0 0 0 1-1v-28.008a8.811 8.811 0 0 0 3.543-.739zm1.783-40.134-.311 7c-.074.036-.151.069-.224.1a7.156 7.156 0 0 1 -3.419.893v-7.993zm2.046-11h-6a2 2 0 0 0 -2 2v7h-2v-9a2 2 0 0 1 2-2h8z"/><path d="m30 38a3 3 0 1 0 3 3 3 3 0 0 0 -3-3zm0 4a1 1 0 1 1 1-1 1 1 0 0 1 -1 1z"/><circle cx="28" cy="33" r="2"/><circle cx="25" cy="51" r="2"/></svg>